{
    "patcher": {
        "fileversion": 1,
        "appversion": {
            "major": 9,
            "minor": 1,
            "revision": 0,
            "architecture": "x64",
            "modernui": 1
        },
        "classnamespace": "box",
        "rect": [ 175.0, 210.0, 787.0, 556.0 ],
        "openinpresentation": 1,
        "gridsize": [ 8.0, 8.0 ],
        "gridsnaponopen": 2,
        "objectsnaponopen": 0,
        "subpatcher_template": "roben-kleene-max-for-live",
        "boxes": [
            {
                "box": {
                    "id": "obj-6",
                    "maxclass": "newobj",
                    "numinlets": 1,
                    "numoutlets": 4,
                    "outlettype": [ "", "", "", "" ],
                    "patching_rect": [ 352.0, 16.0, 56.0, 22.0 ],
                    "restore": {
                        "#1-Freq": [ 30.0 ],
                        "#1-Semi": [ 0.0 ]
                    },
                    "text": "autopattr",
                    "varname": "u665013921"
                }
            },
            {
                "box": {
                    "annotation": "The frequency of the oscillator.",
                    "annotation_name": "Frequency",
                    "id": "obj-14",
                    "maxclass": "live.dial",
                    "numinlets": 1,
                    "numoutlets": 2,
                    "outlettype": [ "", "float" ],
                    "parameter_enable": 1,
                    "patching_rect": [ 352.0, 120.0, 41.0, 48.0 ],
                    "presentation": 1,
                    "presentation_rect": [ 0.0, 0.0, 41.0, 48.0 ],
                    "saved_attribute_attributes": {
                        "valueof": {
                            "parameter_exponent": 5.0,
                            "parameter_longname": "#1-OscFreq",
                            "parameter_mmax": 22000.0,
                            "parameter_mmin": 30.0,
                            "parameter_modmode": 0,
                            "parameter_shortname": "Freq",
                            "parameter_type": 0,
                            "parameter_unitstyle": 3
                        }
                    },
                    "varname": "#1-Freq"
                }
            },
            {
                "box": {
                    "annotation": "The semitone offset of the incoming note.",
                    "annotation_name": "Semitone",
                    "id": "obj-11",
                    "maxclass": "live.dial",
                    "numinlets": 1,
                    "numoutlets": 2,
                    "outlettype": [ "", "float" ],
                    "parameter_enable": 1,
                    "patching_rect": [ 352.0, 184.0, 40.0, 48.0 ],
                    "presentation": 1,
                    "presentation_rect": [ 0.0, 48.0, 40.0, 48.0 ],
                    "saved_attribute_attributes": {
                        "valueof": {
                            "parameter_longname": "#1-OscSemi",
                            "parameter_mmax": 48.0,
                            "parameter_mmin": -48.0,
                            "parameter_modmode": 0,
                            "parameter_shortname": "Semi",
                            "parameter_type": 0,
                            "parameter_unitstyle": 7
                        }
                    },
                    "varname": "#1-Semi"
                }
            },
            {
                "box": {
                    "id": "obj-1",
                    "maxclass": "newobj",
                    "numinlets": 1,
                    "numoutlets": 1,
                    "outlettype": [ "" ],
                    "patching_rect": [ 184.0, 152.0, 32.0, 22.0 ],
                    "text": "mtof"
                }
            },
            {
                "box": {
                    "id": "obj-10",
                    "maxclass": "newobj",
                    "numinlets": 2,
                    "numoutlets": 1,
                    "outlettype": [ "float" ],
                    "patching_rect": [ 184.0, 128.0, 29.5, 22.0 ],
                    "text": "+ 0."
                }
            },
            {
                "box": {
                    "id": "obj-8",
                    "maxclass": "newobj",
                    "numinlets": 1,
                    "numoutlets": 2,
                    "outlettype": [ "", "" ],
                    "patching_rect": [ 8.0, 88.0, 67.0, 22.0 ],
                    "save": [ "#N", "thispatcher", ";", "#Q", "end", ";" ],
                    "text": "thispatcher"
                }
            },
            {
                "box": {
                    "id": "obj-7",
                    "maxclass": "newobj",
                    "numinlets": 2,
                    "numoutlets": 2,
                    "outlettype": [ "", "" ],
                    "patching_rect": [ 8.0, 56.0, 94.0, 22.0 ],
                    "text": "routepass offset"
                }
            },
            {
                "box": {
                    "comment": "",
                    "id": "obj-5",
                    "index": 0,
                    "maxclass": "outlet",
                    "numinlets": 1,
                    "numoutlets": 0,
                    "patching_rect": [ 96.0, 264.0, 30.0, 30.0 ]
                }
            },
            {
                "box": {
                    "id": "obj-25",
                    "maxclass": "newobj",
                    "numinlets": 3,
                    "numoutlets": 1,
                    "outlettype": [ "" ],
                    "patching_rect": [ 88.0, 224.0, 62.0, 22.0 ],
                    "text": "switch 2 1"
                }
            },
            {
                "box": {
                    "id": "obj-26",
                    "maxclass": "newobj",
                    "numinlets": 2,
                    "numoutlets": 1,
                    "outlettype": [ "int" ],
                    "patching_rect": [ 56.0, 192.0, 29.5, 22.0 ],
                    "text": "+ 1"
                }
            },
            {
                "box": {
                    "comment": "",
                    "id": "obj-3",
                    "index": 0,
                    "maxclass": "inlet",
                    "numinlets": 0,
                    "numoutlets": 1,
                    "outlettype": [ "" ],
                    "patching_rect": [ 8.0, 8.0, 30.0, 30.0 ]
                }
            },
            {
                "box": {
                    "id": "obj-2",
                    "maxclass": "newobj",
                    "numinlets": 1,
                    "numoutlets": 2,
                    "outlettype": [ "bang", "int" ],
                    "patching_rect": [ 104.0, 48.0, 29.5, 22.0 ],
                    "text": "t b i"
                }
            },
            {
                "box": {
                    "comment": "",
                    "id": "obj-4",
                    "index": 0,
                    "maxclass": "inlet",
                    "numinlets": 0,
                    "numoutlets": 1,
                    "outlettype": [ "" ],
                    "patching_rect": [ 104.0, 8.0, 30.0, 30.0 ]
                }
            }
        ],
        "lines": [
            {
                "patchline": {
                    "destination": [ "obj-25", 2 ],
                    "source": [ "obj-1", 0 ]
                }
            },
            {
                "patchline": {
                    "destination": [ "obj-1", 0 ],
                    "source": [ "obj-10", 0 ]
                }
            },
            {
                "patchline": {
                    "destination": [ "obj-10", 1 ],
                    "source": [ "obj-11", 0 ]
                }
            },
            {
                "patchline": {
                    "destination": [ "obj-25", 1 ],
                    "source": [ "obj-14", 0 ]
                }
            },
            {
                "patchline": {
                    "destination": [ "obj-10", 0 ],
                    "source": [ "obj-2", 1 ]
                }
            },
            {
                "patchline": {
                    "destination": [ "obj-14", 0 ],
                    "source": [ "obj-2", 0 ]
                }
            },
            {
                "patchline": {
                    "destination": [ "obj-5", 0 ],
                    "source": [ "obj-25", 0 ]
                }
            },
            {
                "patchline": {
                    "destination": [ "obj-25", 0 ],
                    "source": [ "obj-26", 0 ]
                }
            },
            {
                "patchline": {
                    "destination": [ "obj-7", 0 ],
                    "source": [ "obj-3", 0 ]
                }
            },
            {
                "patchline": {
                    "destination": [ "obj-2", 0 ],
                    "source": [ "obj-4", 0 ]
                }
            },
            {
                "patchline": {
                    "destination": [ "obj-26", 0 ],
                    "source": [ "obj-7", 1 ]
                }
            },
            {
                "patchline": {
                    "destination": [ "obj-8", 0 ],
                    "source": [ "obj-7", 0 ]
                }
            }
        ],
        "parameters": {
            "obj-11": [ "#1-OscSemi", "Semi", 0 ],
            "obj-14": [ "#1-OscFreq", "Freq", 0 ],
            "inherited_shortname": 1
        },
        "autosave": 0
    }
}