{
    "patcher": {
        "fileversion": 1,
        "appversion": {
            "major": 9,
            "minor": 1,
            "revision": 1,
            "architecture": "x64",
            "modernui": 1
        },
        "classnamespace": "box",
        "rect": [ 733.0, 228.0, 1332.0, 938.0 ],
        "default_fontsize": 10.0,
        "default_fontname": "Arial Bold",
        "gridsize": [ 8.0, 8.0 ],
        "gridsnaponopen": 2,
        "objectsnaponopen": 0,
        "subpatcher_template": "roben-kleene-max-for-live",
        "boxes": [
            {
                "box": {
                    "id": "obj-18",
                    "maxclass": "newobj",
                    "numinlets": 3,
                    "numoutlets": 1,
                    "outlettype": [ "signal" ],
                    "patcher": {
                        "fileversion": 1,
                        "appversion": {
                            "major": 9,
                            "minor": 1,
                            "revision": 1,
                            "architecture": "x64",
                            "modernui": 1
                        },
                        "classnamespace": "box",
                        "rect": [ 1620.0, 411.0, 1000.0, 780.0 ],
                        "gridsize": [ 8.0, 8.0 ],
                        "gridsnaponopen": 2,
                        "objectsnaponopen": 0,
                        "subpatcher_template": "roben-kleene-max-for-live",
                        "boxes": [
                            {
                                "box": {
                                    "id": "obj-5",
                                    "maxclass": "newobj",
                                    "numinlets": 6,
                                    "numoutlets": 1,
                                    "outlettype": [ "" ],
                                    "patching_rect": [ 88.0, 216.0, 131.0, 22.0 ],
                                    "text": "pack 1. 0.5 0. 0. 0. -0.8"
                                }
                            },
                            {
                                "box": {
                                    "id": "obj-4",
                                    "maxclass": "newobj",
                                    "numinlets": 1,
                                    "numoutlets": 1,
                                    "outlettype": [ "signal" ],
                                    "patching_rect": [ 8.0, 104.0, 47.0, 22.0 ],
                                    "text": "t signal"
                                }
                            },
                            {
                                "box": {
                                    "id": "obj-3",
                                    "maxclass": "newobj",
                                    "numinlets": 3,
                                    "numoutlets": 3,
                                    "outlettype": [ "", "", "" ],
                                    "patching_rect": [ 8.0, 64.0, 101.0, 22.0 ],
                                    "text": "route signal bang"
                                }
                            },
                            {
                                "box": {
                                    "id": "obj-2",
                                    "maxclass": "newobj",
                                    "numinlets": 2,
                                    "numoutlets": 1,
                                    "outlettype": [ "signal" ],
                                    "patching_rect": [ 8.0, 376.0, 29.5, 22.0 ],
                                    "text": "*~"
                                }
                            },
                            {
                                "box": {
                                    "fontsize": 12.0,
                                    "id": "obj-63",
                                    "maxclass": "message",
                                    "numinlets": 2,
                                    "numoutlets": 1,
                                    "outlettype": [ "" ],
                                    "patching_rect": [ 88.0, 256.0, 119.0, 22.0 ],
                                    "text": "0, $1 $2 $3 $4 $5 $6"
                                }
                            },
                            {
                                "box": {
                                    "fontsize": 12.0,
                                    "id": "obj-62",
                                    "maxclass": "newobj",
                                    "numinlets": 3,
                                    "numoutlets": 2,
                                    "outlettype": [ "signal", "bang" ],
                                    "patching_rect": [ 88.0, 296.0, 45.0, 22.0 ],
                                    "text": "curve~"
                                }
                            },
                            {
                                "box": {
                                    "fontsize": 12.0,
                                    "id": "obj-57",
                                    "maxclass": "newobj",
                                    "numinlets": 3,
                                    "numoutlets": 1,
                                    "outlettype": [ "signal" ],
                                    "patching_rect": [ 88.0, 336.0, 116.0, 22.0 ],
                                    "text": "rampsmooth~ 0 100"
                                }
                            },
                            {
                                "box": {
                                    "comment": "",
                                    "id": "obj-61",
                                    "index": 1,
                                    "maxclass": "inlet",
                                    "numinlets": 0,
                                    "numoutlets": 1,
                                    "outlettype": [ "bang" ],
                                    "patching_rect": [ 8.0, 8.0, 30.0, 30.0 ]
                                }
                            },
                            {
                                "box": {
                                    "comment": "",
                                    "id": "obj-69",
                                    "index": 2,
                                    "maxclass": "inlet",
                                    "numinlets": 0,
                                    "numoutlets": 1,
                                    "outlettype": [ "" ],
                                    "patching_rect": [ 104.0, 8.0, 30.0, 30.0 ]
                                }
                            },
                            {
                                "box": {
                                    "comment": "",
                                    "id": "obj-70",
                                    "index": 3,
                                    "maxclass": "inlet",
                                    "numinlets": 0,
                                    "numoutlets": 1,
                                    "outlettype": [ "" ],
                                    "patching_rect": [ 160.0, 8.0, 30.0, 30.0 ]
                                }
                            },
                            {
                                "box": {
                                    "comment": "",
                                    "id": "obj-71",
                                    "index": 1,
                                    "maxclass": "outlet",
                                    "numinlets": 1,
                                    "numoutlets": 0,
                                    "patching_rect": [ 8.0, 416.0, 30.0, 30.0 ]
                                }
                            }
                        ],
                        "lines": [
                            {
                                "patchline": {
                                    "destination": [ "obj-71", 0 ],
                                    "source": [ "obj-2", 0 ]
                                }
                            },
                            {
                                "patchline": {
                                    "destination": [ "obj-4", 0 ],
                                    "source": [ "obj-3", 0 ]
                                }
                            },
                            {
                                "patchline": {
                                    "destination": [ "obj-5", 0 ],
                                    "source": [ "obj-3", 1 ]
                                }
                            },
                            {
                                "patchline": {
                                    "destination": [ "obj-2", 0 ],
                                    "source": [ "obj-4", 0 ]
                                }
                            },
                            {
                                "patchline": {
                                    "destination": [ "obj-63", 0 ],
                                    "source": [ "obj-5", 0 ]
                                }
                            },
                            {
                                "patchline": {
                                    "destination": [ "obj-2", 1 ],
                                    "source": [ "obj-57", 0 ]
                                }
                            },
                            {
                                "patchline": {
                                    "destination": [ "obj-3", 0 ],
                                    "source": [ "obj-61", 0 ]
                                }
                            },
                            {
                                "patchline": {
                                    "destination": [ "obj-57", 0 ],
                                    "source": [ "obj-62", 0 ]
                                }
                            },
                            {
                                "patchline": {
                                    "destination": [ "obj-62", 0 ],
                                    "source": [ "obj-63", 0 ]
                                }
                            },
                            {
                                "patchline": {
                                    "destination": [ "obj-5", 1 ],
                                    "source": [ "obj-69", 0 ]
                                }
                            },
                            {
                                "patchline": {
                                    "destination": [ "obj-5", 4 ],
                                    "source": [ "obj-70", 0 ]
                                }
                            }
                        ]
                    },
                    "patching_rect": [ 696.0, 304.0, 63.0, 20.0 ],
                    "text": "p AmpEnv2"
                }
            },
            {
                "box": {
                    "id": "obj-17",
                    "maxclass": "newobj",
                    "numinlets": 1,
                    "numoutlets": 1,
                    "outlettype": [ "" ],
                    "patching_rect": [ 384.0, 8.0, 26.0, 20.0 ],
                    "saved_object_attributes": {
                        "attr_comment": [ "(float)", "overtone" ],
                        "c": [ "(float)", "overtone" ]
                    },
                    "text": "in 6"
                }
            },
            {
                "box": {
                    "id": "obj-14",
                    "maxclass": "newobj",
                    "numinlets": 3,
                    "numoutlets": 1,
                    "outlettype": [ "signal" ],
                    "patcher": {
                        "fileversion": 1,
                        "appversion": {
                            "major": 9,
                            "minor": 1,
                            "revision": 1,
                            "architecture": "x64",
                            "modernui": 1
                        },
                        "classnamespace": "box",
                        "rect": [ 1472.0, 113.0, 695.0, 1083.0 ],
                        "gridsize": [ 8.0, 8.0 ],
                        "gridsnaponopen": 2,
                        "objectsnaponopen": 0,
                        "subpatcher_template": "roben-kleene-max-for-live",
                        "boxes": [
                            {
                                "box": {
                                    "id": "obj-28",
                                    "maxclass": "newobj",
                                    "numinlets": 2,
                                    "numoutlets": 1,
                                    "outlettype": [ "signal" ],
                                    "patching_rect": [ 136.0, 584.0, 29.5, 22.0 ],
                                    "text": "+~"
                                }
                            },
                            {
                                "box": {
                                    "id": "obj-48",
                                    "maxclass": "newobj",
                                    "numinlets": 1,
                                    "numoutlets": 2,
                                    "outlettype": [ "float", "float" ],
                                    "patching_rect": [ 184.0, 88.0, 29.5, 22.0 ],
                                    "text": "t f f"
                                }
                            },
                            {
                                "box": {
                                    "id": "obj-41",
                                    "maxclass": "comment",
                                    "numinlets": 1,
                                    "numoutlets": 0,
                                    "patching_rect": [ 96.0, 896.0, 93.0, 20.0 ],
                                    "text": "overtones scale"
                                }
                            },
                            {
                                "box": {
                                    "id": "obj-39",
                                    "maxclass": "newobj",
                                    "numinlets": 2,
                                    "numoutlets": 1,
                                    "outlettype": [ "signal" ],
                                    "patching_rect": [ 48.0, 856.0, 29.5, 22.0 ],
                                    "text": "+~"
                                }
                            },
                            {
                                "box": {
                                    "id": "obj-37",
                                    "maxclass": "comment",
                                    "numinlets": 1,
                                    "numoutlets": 0,
                                    "patching_rect": [ 80.0, 768.0, 72.0, 20.0 ],
                                    "text": "lores * input"
                                }
                            },
                            {
                                "box": {
                                    "id": "obj-35",
                                    "maxclass": "comment",
                                    "numinlets": 1,
                                    "numoutlets": 0,
                                    "patching_rect": [ 400.0, 656.0, 75.0, 20.0 ],
                                    "text": "lores * curve"
                                }
                            },
                            {
                                "box": {
                                    "id": "obj-65",
                                    "maxclass": "comment",
                                    "numinlets": 1,
                                    "numoutlets": 0,
                                    "patching_rect": [ 296.0, 704.0, 93.0, 20.0 ],
                                    "text": "lores * overtone"
                                }
                            },
                            {
                                "box": {
                                    "id": "obj-32",
                                    "maxclass": "comment",
                                    "numinlets": 1,
                                    "numoutlets": 0,
                                    "patching_rect": [ 48.0, 960.0, 58.0, 20.0 ],
                                    "text": "Final add"
                                }
                            },
                            {
                                "box": {
                                    "id": "obj-5",
                                    "maxclass": "newobj",
                                    "numinlets": 2,
                                    "numoutlets": 1,
                                    "outlettype": [ "signal" ],
                                    "patching_rect": [ 16.0, 960.0, 29.5, 22.0 ],
                                    "text": "+~"
                                }
                            },
                            {
                                "box": {
                                    "id": "obj-24",
                                    "maxclass": "newobj",
                                    "numinlets": 1,
                                    "numoutlets": 2,
                                    "outlettype": [ "bang", "bang" ],
                                    "patching_rect": [ 64.0, 96.0, 32.0, 22.0 ],
                                    "text": "t b b"
                                }
                            },
                            {
                                "box": {
                                    "id": "obj-7",
                                    "maxclass": "newobj",
                                    "numinlets": 3,
                                    "numoutlets": 3,
                                    "outlettype": [ "", "", "" ],
                                    "patching_rect": [ 8.0, 64.0, 126.0, 22.0 ],
                                    "text": "routepass signal bang"
                                }
                            },
                            {
                                "box": {
                                    "id": "obj-25",
                                    "maxclass": "message",
                                    "numinlets": 2,
                                    "numoutlets": 1,
                                    "outlettype": [ "" ],
                                    "patching_rect": [ 72.0, 504.0, 29.5, 22.0 ],
                                    "text": "0."
                                }
                            },
                            {
                                "box": {
                                    "id": "obj-23",
                                    "maxclass": "newobj",
                                    "numinlets": 2,
                                    "numoutlets": 1,
                                    "outlettype": [ "float" ],
                                    "patching_rect": [ 368.0, 184.0, 29.5, 22.0 ],
                                    "text": "f"
                                }
                            },
                            {
                                "box": {
                                    "id": "obj-22",
                                    "maxclass": "newobj",
                                    "numinlets": 6,
                                    "numoutlets": 1,
                                    "outlettype": [ "" ],
                                    "patching_rect": [ 488.0, 144.0, 97.0, 22.0 ],
                                    "text": "scale 0. 1. 40 90"
                                }
                            },
                            {
                                "box": {
                                    "id": "obj-21",
                                    "maxclass": "newobj",
                                    "numinlets": 5,
                                    "numoutlets": 1,
                                    "outlettype": [ "" ],
                                    "patching_rect": [ 368.0, 144.0, 111.0, 22.0 ],
                                    "text": "zmap 0. 1. 10 2400"
                                }
                            },
                            {
                                "box": {
                                    "id": "obj-20",
                                    "maxclass": "newobj",
                                    "numinlets": 2,
                                    "numoutlets": 1,
                                    "outlettype": [ "signal" ],
                                    "patching_rect": [ 48.0, 536.0, 43.0, 22.0 ],
                                    "text": "cycle~"
                                }
                            },
                            {
                                "box": {
                                    "fontface": 0,
                                    "id": "obj-45",
                                    "maxclass": "newobj",
                                    "numinlets": 2,
                                    "numoutlets": 1,
                                    "outlettype": [ "signal" ],
                                    "patching_rect": [ 48.0, 896.0, 40.0, 22.0 ],
                                    "text": "*~ 0.3"
                                }
                            },
                            {
                                "box": {
                                    "fontface": 1,
                                    "id": "obj-27",
                                    "maxclass": "newobj",
                                    "numinlets": 2,
                                    "numoutlets": 1,
                                    "outlettype": [ "signal" ],
                                    "patching_rect": [ 48.0, 768.0, 30.0, 22.0 ],
                                    "text": "*~"
                                }
                            },
                            {
                                "box": {
                                    "id": "obj-19",
                                    "maxclass": "newobj",
                                    "numinlets": 2,
                                    "numoutlets": 1,
                                    "outlettype": [ "signal" ],
                                    "patching_rect": [ 264.0, 704.0, 29.5, 22.0 ],
                                    "text": "*~"
                                }
                            },
                            {
                                "box": {
                                    "id": "obj-18",
                                    "maxclass": "newobj",
                                    "numinlets": 1,
                                    "numoutlets": 1,
                                    "outlettype": [ "signal" ],
                                    "patching_rect": [ 48.0, 384.0, 31.0, 22.0 ],
                                    "text": "sig~"
                                }
                            },
                            {
                                "box": {
                                    "id": "obj-17",
                                    "maxclass": "newobj",
                                    "numinlets": 2,
                                    "numoutlets": 1,
                                    "outlettype": [ "signal" ],
                                    "patching_rect": [ 368.0, 656.0, 29.5, 22.0 ],
                                    "text": "*~"
                                }
                            },
                            {
                                "box": {
                                    "id": "obj-16",
                                    "maxclass": "newobj",
                                    "numinlets": 2,
                                    "numoutlets": 1,
                                    "outlettype": [ "signal" ],
                                    "patching_rect": [ 136.0, 672.0, 40.0, 22.0 ],
                                    "text": "*~ 0.3"
                                }
                            },
                            {
                                "box": {
                                    "fontface": 0,
                                    "id": "obj-26",
                                    "maxclass": "newobj",
                                    "numinlets": 2,
                                    "numoutlets": 1,
                                    "outlettype": [ "signal" ],
                                    "patching_rect": [ 128.0, 536.0, 42.0, 22.0 ],
                                    "text": "*~ 0.2"
                                }
                            },
                            {
                                "box": {
                                    "fontface": 0,
                                    "fontsize": 12.0,
                                    "id": "obj-54",
                                    "maxclass": "newobj",
                                    "numinlets": 2,
                                    "numoutlets": 1,
                                    "outlettype": [ "signal" ],
                                    "patching_rect": [ 48.0, 424.0, 46.0, 22.0 ],
                                    "text": "+~ 220"
                                }
                            },
                            {
                                "box": {
                                    "fontface": 0,
                                    "id": "obj-13",
                                    "maxclass": "newobj",
                                    "numinlets": 3,
                                    "numoutlets": 1,
                                    "outlettype": [ "signal" ],
                                    "patching_rect": [ 136.0, 632.0, 95.0, 22.0 ],
                                    "text": "lores~ 100 0.2"
                                }
                            },
                            {
                                "box": {
                                    "fontface": 0,
                                    "id": "obj-15",
                                    "maxclass": "newobj",
                                    "numinlets": 1,
                                    "numoutlets": 1,
                                    "outlettype": [ "signal" ],
                                    "patching_rect": [ 128.0, 504.0, 42.0, 22.0 ],
                                    "text": "pink~"
                                }
                            },
                            {
                                "box": {
                                    "id": "obj-12",
                                    "maxclass": "newobj",
                                    "numinlets": 2,
                                    "numoutlets": 1,
                                    "outlettype": [ "signal" ],
                                    "patching_rect": [ 261.0, 186.0, 75.0, 22.0 ],
                                    "text": "onepole~ 10"
                                }
                            },
                            {
                                "box": {
                                    "id": "obj-11",
                                    "maxclass": "newobj",
                                    "numinlets": 1,
                                    "numoutlets": 1,
                                    "outlettype": [ "signal" ],
                                    "patching_rect": [ 261.0, 146.0, 31.0, 22.0 ],
                                    "text": "sig~"
                                }
                            },
                            {
                                "box": {
                                    "id": "obj-10",
                                    "maxclass": "newobj",
                                    "numinlets": 2,
                                    "numoutlets": 1,
                                    "outlettype": [ "signal" ],
                                    "patching_rect": [ 176.0, 384.0, 29.5, 22.0 ],
                                    "text": "*~"
                                }
                            },
                            {
                                "box": {
                                    "id": "obj-9",
                                    "maxclass": "newobj",
                                    "numinlets": 2,
                                    "numoutlets": 1,
                                    "outlettype": [ "signal" ],
                                    "patching_rect": [ 480.0, 344.0, 29.5, 22.0 ],
                                    "text": "*~"
                                }
                            },
                            {
                                "box": {
                                    "id": "obj-8",
                                    "maxclass": "newobj",
                                    "numinlets": 1,
                                    "numoutlets": 3,
                                    "outlettype": [ "float", "float", "float" ],
                                    "patching_rect": [ 261.0, 74.0, 40.0, 22.0 ],
                                    "text": "t f f f"
                                }
                            },
                            {
                                "box": {
                                    "id": "obj-6",
                                    "maxclass": "newobj",
                                    "numinlets": 3,
                                    "numoutlets": 2,
                                    "outlettype": [ "signal", "bang" ],
                                    "patching_rect": [ 368.0, 248.0, 45.0, 22.0 ],
                                    "text": "curve~"
                                }
                            },
                            {
                                "box": {
                                    "fontface": 0,
                                    "fontname": "Arial",
                                    "fontsize": 12.0,
                                    "id": "obj-14",
                                    "maxclass": "message",
                                    "numinlets": 2,
                                    "numoutlets": 1,
                                    "outlettype": [ "" ],
                                    "patching_rect": [ 368.0, 216.0, 113.0, 22.0 ],
                                    "text": "0, 1 1 -0.8 0 $1 -0.6"
                                }
                            },
                            {
                                "box": {
                                    "comment": "(signal) mono",
                                    "id": "obj-4",
                                    "index": 1,
                                    "maxclass": "outlet",
                                    "numinlets": 1,
                                    "numoutlets": 0,
                                    "patching_rect": [ 16.0, 1056.0, 30.0, 30.0 ]
                                }
                            },
                            {
                                "box": {
                                    "comment": "(float) overtone",
                                    "id": "obj-3",
                                    "index": 3,
                                    "maxclass": "inlet",
                                    "numinlets": 0,
                                    "numoutlets": 1,
                                    "outlettype": [ "" ],
                                    "patching_rect": [ 261.0, 2.0, 30.0, 30.0 ]
                                }
                            },
                            {
                                "box": {
                                    "comment": "(float, hz) freq",
                                    "id": "obj-2",
                                    "index": 2,
                                    "maxclass": "inlet",
                                    "numinlets": 0,
                                    "numoutlets": 1,
                                    "outlettype": [ "" ],
                                    "patching_rect": [ 184.0, 0.0, 30.0, 30.0 ]
                                }
                            },
                            {
                                "box": {
                                    "comment": "(signal) mono",
                                    "id": "obj-1",
                                    "index": 1,
                                    "maxclass": "inlet",
                                    "numinlets": 0,
                                    "numoutlets": 1,
                                    "outlettype": [ "bang" ],
                                    "patching_rect": [ 8.0, 0.0, 30.0, 30.0 ]
                                }
                            }
                        ],
                        "lines": [
                            {
                                "patchline": {
                                    "destination": [ "obj-7", 0 ],
                                    "source": [ "obj-1", 0 ]
                                }
                            },
                            {
                                "patchline": {
                                    "destination": [ "obj-13", 1 ],
                                    "source": [ "obj-10", 0 ]
                                }
                            },
                            {
                                "patchline": {
                                    "destination": [ "obj-12", 0 ],
                                    "source": [ "obj-11", 0 ]
                                }
                            },
                            {
                                "patchline": {
                                    "destination": [ "obj-19", 0 ],
                                    "source": [ "obj-12", 0 ]
                                }
                            },
                            {
                                "patchline": {
                                    "destination": [ "obj-16", 0 ],
                                    "source": [ "obj-13", 0 ]
                                }
                            },
                            {
                                "patchline": {
                                    "destination": [ "obj-6", 0 ],
                                    "source": [ "obj-14", 0 ]
                                }
                            },
                            {
                                "patchline": {
                                    "destination": [ "obj-26", 0 ],
                                    "source": [ "obj-15", 0 ]
                                }
                            },
                            {
                                "patchline": {
                                    "destination": [ "obj-17", 1 ],
                                    "source": [ "obj-16", 0 ]
                                }
                            },
                            {
                                "patchline": {
                                    "destination": [ "obj-19", 1 ],
                                    "source": [ "obj-17", 0 ]
                                }
                            },
                            {
                                "patchline": {
                                    "destination": [ "obj-54", 0 ],
                                    "source": [ "obj-18", 0 ]
                                }
                            },
                            {
                                "patchline": {
                                    "destination": [ "obj-27", 1 ],
                                    "order": 0,
                                    "source": [ "obj-19", 0 ]
                                }
                            },
                            {
                                "patchline": {
                                    "destination": [ "obj-39", 1 ],
                                    "order": 1,
                                    "source": [ "obj-19", 0 ]
                                }
                            },
                            {
                                "patchline": {
                                    "destination": [ "obj-48", 0 ],
                                    "source": [ "obj-2", 0 ]
                                }
                            },
                            {
                                "patchline": {
                                    "destination": [ "obj-28", 0 ],
                                    "source": [ "obj-20", 0 ]
                                }
                            },
                            {
                                "patchline": {
                                    "destination": [ "obj-23", 1 ],
                                    "source": [ "obj-21", 0 ]
                                }
                            },
                            {
                                "patchline": {
                                    "destination": [ "obj-9", 1 ],
                                    "source": [ "obj-22", 0 ]
                                }
                            },
                            {
                                "patchline": {
                                    "destination": [ "obj-14", 0 ],
                                    "source": [ "obj-23", 0 ]
                                }
                            },
                            {
                                "patchline": {
                                    "destination": [ "obj-23", 0 ],
                                    "source": [ "obj-24", 1 ]
                                }
                            },
                            {
                                "patchline": {
                                    "destination": [ "obj-25", 0 ],
                                    "source": [ "obj-24", 0 ]
                                }
                            },
                            {
                                "patchline": {
                                    "destination": [ "obj-20", 1 ],
                                    "source": [ "obj-25", 0 ]
                                }
                            },
                            {
                                "patchline": {
                                    "destination": [ "obj-28", 1 ],
                                    "source": [ "obj-26", 0 ]
                                }
                            },
                            {
                                "patchline": {
                                    "destination": [ "obj-39", 0 ],
                                    "source": [ "obj-27", 0 ]
                                }
                            },
                            {
                                "patchline": {
                                    "destination": [ "obj-13", 0 ],
                                    "source": [ "obj-28", 0 ]
                                }
                            },
                            {
                                "patchline": {
                                    "destination": [ "obj-8", 0 ],
                                    "source": [ "obj-3", 0 ]
                                }
                            },
                            {
                                "patchline": {
                                    "destination": [ "obj-45", 0 ],
                                    "source": [ "obj-39", 0 ]
                                }
                            },
                            {
                                "patchline": {
                                    "destination": [ "obj-5", 1 ],
                                    "source": [ "obj-45", 0 ]
                                }
                            },
                            {
                                "patchline": {
                                    "destination": [ "obj-10", 1 ],
                                    "source": [ "obj-48", 1 ]
                                }
                            },
                            {
                                "patchline": {
                                    "destination": [ "obj-18", 0 ],
                                    "source": [ "obj-48", 0 ]
                                }
                            },
                            {
                                "patchline": {
                                    "destination": [ "obj-4", 0 ],
                                    "source": [ "obj-5", 0 ]
                                }
                            },
                            {
                                "patchline": {
                                    "destination": [ "obj-20", 0 ],
                                    "source": [ "obj-54", 0 ]
                                }
                            },
                            {
                                "patchline": {
                                    "destination": [ "obj-17", 0 ],
                                    "order": 1,
                                    "source": [ "obj-6", 0 ]
                                }
                            },
                            {
                                "patchline": {
                                    "destination": [ "obj-9", 0 ],
                                    "order": 0,
                                    "source": [ "obj-6", 0 ]
                                }
                            },
                            {
                                "patchline": {
                                    "destination": [ "obj-24", 0 ],
                                    "source": [ "obj-7", 1 ]
                                }
                            },
                            {
                                "patchline": {
                                    "destination": [ "obj-27", 0 ],
                                    "order": 0,
                                    "source": [ "obj-7", 0 ]
                                }
                            },
                            {
                                "patchline": {
                                    "destination": [ "obj-5", 0 ],
                                    "order": 1,
                                    "source": [ "obj-7", 0 ]
                                }
                            },
                            {
                                "patchline": {
                                    "destination": [ "obj-11", 0 ],
                                    "source": [ "obj-8", 0 ]
                                }
                            },
                            {
                                "patchline": {
                                    "destination": [ "obj-21", 0 ],
                                    "source": [ "obj-8", 1 ]
                                }
                            },
                            {
                                "patchline": {
                                    "destination": [ "obj-22", 0 ],
                                    "source": [ "obj-8", 2 ]
                                }
                            },
                            {
                                "patchline": {
                                    "destination": [ "obj-10", 0 ],
                                    "source": [ "obj-9", 0 ]
                                }
                            }
                        ]
                    },
                    "patching_rect": [ 344.0, 192.0, 61.0, 20.0 ],
                    "text": "p Overtone"
                }
            },
            {
                "box": {
                    "id": "obj-13",
                    "maxclass": "newobj",
                    "numinlets": 2,
                    "numoutlets": 1,
                    "outlettype": [ "signal" ],
                    "patcher": {
                        "fileversion": 1,
                        "appversion": {
                            "major": 9,
                            "minor": 1,
                            "revision": 1,
                            "architecture": "x64",
                            "modernui": 1
                        },
                        "classnamespace": "box",
                        "rect": [ 1332.0, 297.0, 570.0, 780.0 ],
                        "gridsize": [ 8.0, 8.0 ],
                        "gridsnaponopen": 2,
                        "objectsnaponopen": 0,
                        "subpatcher_template": "roben-kleene-max-for-live",
                        "boxes": [
                            {
                                "box": {
                                    "id": "obj-8",
                                    "linecount": 3,
                                    "maxclass": "comment",
                                    "numinlets": 1,
                                    "numoutlets": 0,
                                    "patching_rect": [ 168.0, 88.0, 150.0, 47.0 ],
                                    "text": "`onepole~` prevents \"zipper effect\" when modulating parameter."
                                }
                            },
                            {
                                "box": {
                                    "id": "obj-6",
                                    "maxclass": "newobj",
                                    "numinlets": 2,
                                    "numoutlets": 1,
                                    "outlettype": [ "signal" ],
                                    "patching_rect": [ 88.0, 88.0, 68.0, 22.0 ],
                                    "text": "onepole~ 8"
                                }
                            },
                            {
                                "box": {
                                    "id": "obj-5",
                                    "maxclass": "newobj",
                                    "numinlets": 1,
                                    "numoutlets": 1,
                                    "outlettype": [ "signal" ],
                                    "patching_rect": [ 88.0, 56.0, 31.0, 22.0 ],
                                    "text": "sig~"
                                }
                            },
                            {
                                "box": {
                                    "comment": "(float) overdrive amt",
                                    "id": "obj-4",
                                    "index": 2,
                                    "maxclass": "inlet",
                                    "numinlets": 0,
                                    "numoutlets": 1,
                                    "outlettype": [ "" ],
                                    "patching_rect": [ 88.0, 8.0, 30.0, 30.0 ]
                                }
                            },
                            {
                                "box": {
                                    "comment": "(signal) mono",
                                    "id": "obj-3",
                                    "index": 1,
                                    "maxclass": "outlet",
                                    "numinlets": 1,
                                    "numoutlets": 0,
                                    "patching_rect": [ 8.0, 160.0, 30.0, 30.0 ]
                                }
                            },
                            {
                                "box": {
                                    "comment": "(signal) mono",
                                    "id": "obj-2",
                                    "index": 1,
                                    "maxclass": "inlet",
                                    "numinlets": 0,
                                    "numoutlets": 1,
                                    "outlettype": [ "signal" ],
                                    "patching_rect": [ 8.0, 8.0, 30.0, 30.0 ]
                                }
                            },
                            {
                                "box": {
                                    "id": "obj-1",
                                    "maxclass": "newobj",
                                    "numinlets": 2,
                                    "numoutlets": 1,
                                    "outlettype": [ "signal" ],
                                    "patching_rect": [ 8.0, 120.0, 75.0, 22.0 ],
                                    "text": "overdrive~ 1"
                                }
                            }
                        ],
                        "lines": [
                            {
                                "patchline": {
                                    "destination": [ "obj-3", 0 ],
                                    "source": [ "obj-1", 0 ]
                                }
                            },
                            {
                                "patchline": {
                                    "destination": [ "obj-1", 0 ],
                                    "source": [ "obj-2", 0 ]
                                }
                            },
                            {
                                "patchline": {
                                    "destination": [ "obj-5", 0 ],
                                    "source": [ "obj-4", 0 ]
                                }
                            },
                            {
                                "patchline": {
                                    "destination": [ "obj-6", 0 ],
                                    "source": [ "obj-5", 0 ]
                                }
                            },
                            {
                                "patchline": {
                                    "destination": [ "obj-1", 1 ],
                                    "source": [ "obj-6", 0 ]
                                }
                            }
                        ]
                    },
                    "patching_rect": [ 424.0, 232.0, 64.0, 20.0 ],
                    "text": "p Overdrive"
                }
            },
            {
                "box": {
                    "id": "obj-20",
                    "maxclass": "newobj",
                    "numinlets": 1,
                    "numoutlets": 1,
                    "outlettype": [ "" ],
                    "patching_rect": [ 464.0, 8.0, 26.0, 20.0 ],
                    "saved_object_attributes": {
                        "attr_comment": [ "(float)", "overdrive" ],
                        "c": [ "(float)", "overdrive" ]
                    },
                    "text": "in 7"
                }
            },
            {
                "box": {
                    "id": "obj-16",
                    "maxclass": "newobj",
                    "numinlets": 5,
                    "numoutlets": 1,
                    "outlettype": [ "" ],
                    "patching_rect": [ 8.0, 360.0, 84.0, 20.0 ],
                    "text": "zmap 0 127 0. 1."
                }
            },
            {
                "box": {
                    "id": "obj-15",
                    "maxclass": "newobj",
                    "numinlets": 2,
                    "numoutlets": 1,
                    "outlettype": [ "signal" ],
                    "patching_rect": [ 504.0, 424.0, 29.5, 20.0 ],
                    "text": "*~ 1."
                }
            },
            {
                "box": {
                    "id": "obj-3",
                    "maxclass": "newobj",
                    "numinlets": 1,
                    "numoutlets": 3,
                    "outlettype": [ "int", "int", "int" ],
                    "patching_rect": [ 552.0, 536.0, 119.0, 20.0 ],
                    "text": "thispoly~ @automute 1"
                }
            },
            {
                "box": {
                    "id": "obj-2",
                    "maxclass": "newobj",
                    "numinlets": 1,
                    "numoutlets": 1,
                    "outlettype": [ "" ],
                    "patching_rect": [ 552.0, 8.0, 26.0, 20.0 ],
                    "saved_object_attributes": {
                        "attr_comment": [ "(float", ",", "ms)", "decay" ],
                        "c": [ "(float", ",", "ms)", "decay" ]
                    },
                    "text": "in 9"
                }
            },
            {
                "box": {
                    "id": "obj-1",
                    "maxclass": "newobj",
                    "numinlets": 1,
                    "numoutlets": 1,
                    "outlettype": [ "" ],
                    "patching_rect": [ 520.0, 8.0, 26.0, 20.0 ],
                    "saved_object_attributes": {
                        "attr_comment": [ "(float", ",", "ms)", "attack" ],
                        "c": [ "(float", ",", "ms)", "attack" ]
                    },
                    "text": "in 8"
                }
            },
            {
                "box": {
                    "id": "obj-12",
                    "maxclass": "newobj",
                    "numinlets": 1,
                    "numoutlets": 1,
                    "outlettype": [ "" ],
                    "patching_rect": [ 248.0, 8.0, 26.0, 20.0 ],
                    "saved_object_attributes": {
                        "attr_comment": [ "(int)", "osc", "shape" ],
                        "c": [ "(int)", "osc", "shape" ]
                    },
                    "text": "in 5"
                }
            },
            {
                "box": {
                    "id": "obj-11",
                    "maxclass": "newobj",
                    "numinlets": 1,
                    "numoutlets": 1,
                    "outlettype": [ "" ],
                    "patching_rect": [ 200.0, 8.0, 26.0, 20.0 ],
                    "saved_object_attributes": {
                        "attr_comment": [ "(float", ",", "hz)", "pitch", "env", "amt" ],
                        "c": [ "(float", ",", "hz)", "pitch", "env", "amt" ]
                    },
                    "text": "in 4"
                }
            },
            {
                "box": {
                    "id": "obj-10",
                    "maxclass": "newobj",
                    "numinlets": 1,
                    "numoutlets": 1,
                    "outlettype": [ "" ],
                    "patching_rect": [ 168.0, 8.0, 26.0, 20.0 ],
                    "saved_object_attributes": {
                        "attr_comment": [ "(list)", "pitch", "env", "function" ],
                        "c": [ "(list)", "pitch", "env", "function" ]
                    },
                    "text": "in 3"
                }
            },
            {
                "box": {
                    "id": "obj-9",
                    "maxclass": "newobj",
                    "numinlets": 1,
                    "numoutlets": 1,
                    "outlettype": [ "" ],
                    "patching_rect": [ 64.0, 8.0, 26.0, 20.0 ],
                    "saved_object_attributes": {
                        "attr_comment": [ "(float", ",", "hz)", "freq" ],
                        "c": [ "(float", ",", "hz)", "freq" ]
                    },
                    "text": "in 2"
                }
            },
            {
                "box": {
                    "id": "obj-6",
                    "maxclass": "newobj",
                    "numinlets": 1,
                    "numoutlets": 1,
                    "outlettype": [ "" ],
                    "patching_rect": [ 8.0, 8.0, 26.0, 20.0 ],
                    "saved_object_attributes": {
                        "attr_comment": [ "(int)", "velocity" ],
                        "c": [ "(int)", "velocity" ]
                    },
                    "text": "in 1"
                }
            },
            {
                "box": {
                    "id": "obj-4",
                    "maxclass": "newobj",
                    "numinlets": 1,
                    "numoutlets": 0,
                    "patching_rect": [ 504.0, 536.0, 38.0, 20.0 ],
                    "saved_object_attributes": {
                        "attr_comment": [ "(signal)", "mono" ],
                        "c": [ "(signal)", "mono" ]
                    },
                    "text": "out~ 1"
                }
            },
            {
                "box": {
                    "fontname": "Arial Bold",
                    "fontsize": 10.0,
                    "id": "obj-8",
                    "maxclass": "newobj",
                    "numinlets": 1,
                    "numoutlets": 4,
                    "outlettype": [ "float", "bang", "bang", "bang" ],
                    "patching_rect": [ 8.0, 96.0, 50.5, 20.0 ],
                    "text": "t f b b b"
                }
            },
            {
                "box": {
                    "id": "obj-23",
                    "maxclass": "newobj",
                    "numinlets": 3,
                    "numoutlets": 2,
                    "outlettype": [ "signal", "bang" ],
                    "patcher": {
                        "fileversion": 1,
                        "appversion": {
                            "major": 9,
                            "minor": 1,
                            "revision": 1,
                            "architecture": "x64",
                            "modernui": 1
                        },
                        "classnamespace": "box",
                        "rect": [ 1671.0, 483.0, 767.0, 611.0 ],
                        "default_fontsize": 10.0,
                        "default_fontname": "Arial Bold",
                        "gridsize": [ 8.0, 8.0 ],
                        "gridsnaponopen": 2,
                        "objectsnaponopen": 0,
                        "boxes": [
                            {
                                "box": {
                                    "id": "obj-3",
                                    "linecount": 2,
                                    "maxclass": "comment",
                                    "numinlets": 1,
                                    "numoutlets": 0,
                                    "patching_rect": [ 136.0, 136.0, 152.0, 29.0 ],
                                    "text": "Go to `1` over the attack time, and `0` over the decay time."
                                }
                            },
                            {
                                "box": {
                                    "comment": "(bang) env finish ",
                                    "id": "obj-1",
                                    "index": 2,
                                    "maxclass": "outlet",
                                    "numinlets": 1,
                                    "numoutlets": 0,
                                    "patching_rect": [ 80.0, 320.0, 30.0, 30.0 ]
                                }
                            },
                            {
                                "box": {
                                    "fontname": "Arial Bold",
                                    "fontsize": 10.0,
                                    "id": "obj-20",
                                    "maxclass": "newobj",
                                    "numinlets": 1,
                                    "numoutlets": 1,
                                    "outlettype": [ "bang" ],
                                    "patching_rect": [ 56.0, 104.0, 21.0, 20.0 ],
                                    "text": "t b"
                                }
                            },
                            {
                                "box": {
                                    "fontname": "Arial Bold",
                                    "fontsize": 10.0,
                                    "id": "obj-7",
                                    "maxclass": "message",
                                    "numinlets": 2,
                                    "numoutlets": 1,
                                    "outlettype": [ "" ],
                                    "patching_rect": [ 56.0, 168.0, 72.0, 20.0 ],
                                    "text": "0, $1 $2 $3 $4"
                                }
                            },
                            {
                                "box": {
                                    "fontname": "Arial Bold",
                                    "fontsize": 10.0,
                                    "id": "obj-16",
                                    "maxclass": "newobj",
                                    "numinlets": 4,
                                    "numoutlets": 1,
                                    "outlettype": [ "" ],
                                    "patching_rect": [ 56.0, 136.0, 76.0, 20.0 ],
                                    "text": "pack 1. 0. 0. 0."
                                }
                            },
                            {
                                "box": {
                                    "fontname": "Arial Bold",
                                    "fontsize": 10.0,
                                    "id": "obj-19",
                                    "maxclass": "newobj",
                                    "numinlets": 2,
                                    "numoutlets": 2,
                                    "outlettype": [ "signal", "bang" ],
                                    "patching_rect": [ 56.0, 200.0, 32.0, 20.0 ],
                                    "text": "line~"
                                }
                            },
                            {
                                "box": {
                                    "fontname": "Arial Bold",
                                    "fontsize": 10.0,
                                    "id": "obj-14",
                                    "maxclass": "newobj",
                                    "numinlets": 1,
                                    "numoutlets": 1,
                                    "outlettype": [ "signal" ],
                                    "patching_rect": [ 8.0, 104.0, 44.0, 20.0 ],
                                    "text": "t signal"
                                }
                            },
                            {
                                "box": {
                                    "fontname": "Arial Bold",
                                    "fontsize": 10.0,
                                    "id": "obj-15",
                                    "maxclass": "newobj",
                                    "numinlets": 2,
                                    "numoutlets": 2,
                                    "outlettype": [ "", "" ],
                                    "patching_rect": [ 8.0, 64.0, 65.0, 20.0 ],
                                    "text": "route signal"
                                }
                            },
                            {
                                "box": {
                                    "fontname": "Arial Bold",
                                    "fontsize": 10.0,
                                    "id": "obj-9",
                                    "maxclass": "newobj",
                                    "numinlets": 2,
                                    "numoutlets": 1,
                                    "outlettype": [ "signal" ],
                                    "patching_rect": [ 8.0, 232.0, 29.5, 20.0 ],
                                    "text": "*~ 0."
                                }
                            },
                            {
                                "box": {
                                    "comment": "(float, ms) attack",
                                    "id": "obj-5",
                                    "index": 2,
                                    "maxclass": "inlet",
                                    "numinlets": 0,
                                    "numoutlets": 1,
                                    "outlettype": [ "" ],
                                    "patching_rect": [ 72.0, 8.0, 30.0, 30.0 ]
                                }
                            },
                            {
                                "box": {
                                    "comment": "(float, ms) decay",
                                    "id": "obj-10",
                                    "index": 3,
                                    "maxclass": "inlet",
                                    "numinlets": 0,
                                    "numoutlets": 1,
                                    "outlettype": [ "" ],
                                    "patching_rect": [ 112.0, 8.0, 30.0, 30.0 ]
                                }
                            },
                            {
                                "box": {
                                    "comment": "(signal) mono",
                                    "id": "obj-13",
                                    "index": 1,
                                    "maxclass": "inlet",
                                    "numinlets": 0,
                                    "numoutlets": 1,
                                    "outlettype": [ "bang" ],
                                    "patching_rect": [ 8.0, 8.0, 30.0, 30.0 ]
                                }
                            },
                            {
                                "box": {
                                    "comment": "(signal) mono",
                                    "id": "obj-22",
                                    "index": 1,
                                    "maxclass": "outlet",
                                    "numinlets": 1,
                                    "numoutlets": 0,
                                    "patching_rect": [ 8.0, 320.0, 30.0, 30.0 ]
                                }
                            }
                        ],
                        "lines": [
                            {
                                "patchline": {
                                    "destination": [ "obj-16", 3 ],
                                    "source": [ "obj-10", 0 ]
                                }
                            },
                            {
                                "patchline": {
                                    "destination": [ "obj-15", 0 ],
                                    "source": [ "obj-13", 0 ]
                                }
                            },
                            {
                                "patchline": {
                                    "destination": [ "obj-9", 0 ],
                                    "source": [ "obj-14", 0 ]
                                }
                            },
                            {
                                "patchline": {
                                    "destination": [ "obj-14", 0 ],
                                    "source": [ "obj-15", 0 ]
                                }
                            },
                            {
                                "patchline": {
                                    "destination": [ "obj-20", 0 ],
                                    "source": [ "obj-15", 1 ]
                                }
                            },
                            {
                                "patchline": {
                                    "destination": [ "obj-7", 0 ],
                                    "source": [ "obj-16", 0 ]
                                }
                            },
                            {
                                "patchline": {
                                    "destination": [ "obj-1", 0 ],
                                    "source": [ "obj-19", 1 ]
                                }
                            },
                            {
                                "patchline": {
                                    "destination": [ "obj-9", 1 ],
                                    "source": [ "obj-19", 0 ]
                                }
                            },
                            {
                                "patchline": {
                                    "destination": [ "obj-16", 0 ],
                                    "source": [ "obj-20", 0 ]
                                }
                            },
                            {
                                "patchline": {
                                    "destination": [ "obj-16", 1 ],
                                    "source": [ "obj-5", 0 ]
                                }
                            },
                            {
                                "patchline": {
                                    "destination": [ "obj-19", 0 ],
                                    "source": [ "obj-7", 0 ]
                                }
                            },
                            {
                                "patchline": {
                                    "destination": [ "obj-22", 0 ],
                                    "source": [ "obj-9", 0 ]
                                }
                            }
                        ]
                    },
                    "patching_rect": [ 504.0, 304.0, 58.0, 20.0 ],
                    "saved_object_attributes": {
                        "fontname": "Arial Bold",
                        "fontsize": 10.0
                    },
                    "text": "p AmpEnv"
                }
            },
            {
                "box": {
                    "id": "obj-19",
                    "maxclass": "newobj",
                    "numinlets": 2,
                    "numoutlets": 1,
                    "outlettype": [ "signal" ],
                    "patcher": {
                        "fileversion": 1,
                        "appversion": {
                            "major": 9,
                            "minor": 1,
                            "revision": 1,
                            "architecture": "x64",
                            "modernui": 1
                        },
                        "classnamespace": "box",
                        "rect": [ 490.0, 436.0, 640.0, 480.0 ],
                        "default_fontsize": 10.0,
                        "default_fontname": "Arial Bold",
                        "gridsize": [ 8.0, 8.0 ],
                        "gridsnaponopen": 2,
                        "objectsnaponopen": 0,
                        "boxes": [
                            {
                                "box": {
                                    "id": "obj-10",
                                    "maxclass": "newobj",
                                    "numinlets": 1,
                                    "numoutlets": 1,
                                    "outlettype": [ "" ],
                                    "patching_rect": [ 256.0, 144.0, 113.0, 20.0 ],
                                    "text": "prepend patchername"
                                }
                            },
                            {
                                "box": {
                                    "id": "obj-9",
                                    "items": [ "OscCycle", ",", "OscTri", ",", "OscRect", ",", "OscSaw", ",", "OscNoise", ",", "OscPink" ],
                                    "maxclass": "umenu",
                                    "numinlets": 1,
                                    "numoutlets": 3,
                                    "outlettype": [ "int", "", "" ],
                                    "parameter_enable": 0,
                                    "patching_rect": [ 256.0, 104.0, 248.0, 20.0 ]
                                }
                            },
                            {
                                "box": {
                                    "id": "obj-13",
                                    "maxclass": "newobj",
                                    "numinlets": 2,
                                    "numoutlets": 1,
                                    "outlettype": [ "signal" ],
                                    "patching_rect": [ 32.0, 168.0, 83.0, 20.0 ],
                                    "text": "poly~ OscCycle"
                                }
                            },
                            {
                                "box": {
                                    "fontname": "Arial Bold",
                                    "fontsize": 10.0,
                                    "id": "obj-11",
                                    "maxclass": "newobj",
                                    "numinlets": 1,
                                    "numoutlets": 1,
                                    "outlettype": [ "float" ],
                                    "patching_rect": [ 88.0, 88.0, 21.0, 20.0 ],
                                    "text": "t f"
                                }
                            },
                            {
                                "box": {
                                    "fontname": "Arial Bold",
                                    "fontsize": 10.0,
                                    "id": "obj-14",
                                    "maxclass": "newobj",
                                    "numinlets": 1,
                                    "numoutlets": 1,
                                    "outlettype": [ "signal" ],
                                    "patching_rect": [ 32.0, 88.0, 49.0, 20.0 ],
                                    "text": "t signal"
                                }
                            },
                            {
                                "box": {
                                    "fontname": "Arial Bold",
                                    "fontsize": 10.0,
                                    "id": "obj-5",
                                    "maxclass": "newobj",
                                    "numinlets": 5,
                                    "numoutlets": 5,
                                    "outlettype": [ "", "", "", "", "" ],
                                    "patching_rect": [ 32.0, 56.0, 170.0, 20.0 ],
                                    "text": "routepass signal float int bang"
                                }
                            },
                            {
                                "box": {
                                    "comment": "(int) osc shape",
                                    "id": "obj-16",
                                    "index": 2,
                                    "maxclass": "inlet",
                                    "numinlets": 0,
                                    "numoutlets": 1,
                                    "outlettype": [ "" ],
                                    "patching_rect": [ 256.0, 8.0, 30.0, 30.0 ]
                                }
                            },
                            {
                                "box": {
                                    "comment": "(float, hz) freq",
                                    "id": "obj-17",
                                    "index": 1,
                                    "maxclass": "inlet",
                                    "numinlets": 0,
                                    "numoutlets": 1,
                                    "outlettype": [ "bang" ],
                                    "patching_rect": [ 32.0, 8.0, 30.0, 30.0 ]
                                }
                            },
                            {
                                "box": {
                                    "comment": "(signal) mono",
                                    "id": "obj-18",
                                    "index": 1,
                                    "maxclass": "outlet",
                                    "numinlets": 1,
                                    "numoutlets": 0,
                                    "patching_rect": [ 32.0, 208.0, 30.0, 30.0 ]
                                }
                            }
                        ],
                        "lines": [
                            {
                                "patchline": {
                                    "destination": [ "obj-13", 0 ],
                                    "source": [ "obj-10", 0 ]
                                }
                            },
                            {
                                "patchline": {
                                    "destination": [ "obj-13", 0 ],
                                    "source": [ "obj-11", 0 ]
                                }
                            },
                            {
                                "patchline": {
                                    "destination": [ "obj-18", 0 ],
                                    "source": [ "obj-13", 0 ]
                                }
                            },
                            {
                                "patchline": {
                                    "destination": [ "obj-13", 0 ],
                                    "source": [ "obj-14", 0 ]
                                }
                            },
                            {
                                "patchline": {
                                    "destination": [ "obj-9", 0 ],
                                    "source": [ "obj-16", 0 ]
                                }
                            },
                            {
                                "patchline": {
                                    "destination": [ "obj-5", 0 ],
                                    "source": [ "obj-17", 0 ]
                                }
                            },
                            {
                                "patchline": {
                                    "destination": [ "obj-11", 0 ],
                                    "source": [ "obj-5", 2 ]
                                }
                            },
                            {
                                "patchline": {
                                    "destination": [ "obj-11", 0 ],
                                    "source": [ "obj-5", 1 ]
                                }
                            },
                            {
                                "patchline": {
                                    "destination": [ "obj-13", 1 ],
                                    "source": [ "obj-5", 3 ]
                                }
                            },
                            {
                                "patchline": {
                                    "destination": [ "obj-14", 0 ],
                                    "source": [ "obj-5", 0 ]
                                }
                            },
                            {
                                "patchline": {
                                    "destination": [ "obj-10", 0 ],
                                    "source": [ "obj-9", 1 ]
                                }
                            }
                        ]
                    },
                    "patching_rect": [ 232.0, 152.0, 36.0, 20.0 ],
                    "saved_object_attributes": {
                        "fontname": "Arial Bold",
                        "fontsize": 10.0
                    },
                    "text": "p Osc"
                }
            },
            {
                "box": {
                    "id": "obj-7",
                    "maxclass": "newobj",
                    "numinlets": 3,
                    "numoutlets": 1,
                    "outlettype": [ "signal" ],
                    "patcher": {
                        "fileversion": 1,
                        "appversion": {
                            "major": 9,
                            "minor": 1,
                            "revision": 1,
                            "architecture": "x64",
                            "modernui": 1
                        },
                        "classnamespace": "box",
                        "rect": [ 1090.0, 823.0, 639.0, 358.0 ],
                        "default_fontsize": 10.0,
                        "default_fontname": "Arial Bold",
                        "gridsize": [ 8.0, 8.0 ],
                        "gridsnaponopen": 2,
                        "objectsnaponopen": 0,
                        "boxes": [
                            {
                                "box": {
                                    "id": "obj-4",
                                    "maxclass": "newobj",
                                    "numinlets": 1,
                                    "numoutlets": 2,
                                    "outlettype": [ "", "stop" ],
                                    "patching_rect": [ 48.0, 80.0, 41.0, 20.0 ],
                                    "text": "t l stop"
                                }
                            },
                            {
                                "box": {
                                    "fontname": "Arial Bold",
                                    "fontsize": 10.0,
                                    "id": "obj-27",
                                    "maxclass": "newobj",
                                    "numinlets": 3,
                                    "numoutlets": 2,
                                    "outlettype": [ "signal", "bang" ],
                                    "patching_rect": [ 48.0, 144.0, 41.0, 20.0 ],
                                    "text": "curve~"
                                }
                            },
                            {
                                "box": {
                                    "fontname": "Arial Bold",
                                    "fontsize": 10.0,
                                    "id": "obj-17",
                                    "maxclass": "newobj",
                                    "numinlets": 2,
                                    "numoutlets": 1,
                                    "outlettype": [ "signal" ],
                                    "patching_rect": [ 8.0, 224.0, 38.0, 20.0 ],
                                    "text": "+~ 0."
                                }
                            },
                            {
                                "box": {
                                    "fontname": "Arial Bold",
                                    "fontsize": 10.0,
                                    "id": "obj-19",
                                    "maxclass": "newobj",
                                    "numinlets": 2,
                                    "numoutlets": 1,
                                    "outlettype": [ "signal" ],
                                    "patching_rect": [ 32.0, 184.0, 36.0, 20.0 ],
                                    "text": "*~ 0."
                                }
                            },
                            {
                                "box": {
                                    "comment": "(float, hz) freq",
                                    "id": "obj-7",
                                    "index": 1,
                                    "maxclass": "inlet",
                                    "numinlets": 0,
                                    "numoutlets": 1,
                                    "outlettype": [ "signal" ],
                                    "patching_rect": [ 8.0, 8.0, 30.0, 30.0 ]
                                }
                            },
                            {
                                "box": {
                                    "comment": "(float, hz) pitch mod amount",
                                    "id": "obj-8",
                                    "index": 3,
                                    "maxclass": "inlet",
                                    "numinlets": 0,
                                    "numoutlets": 1,
                                    "outlettype": [ "" ],
                                    "patching_rect": [ 88.0, 8.0, 30.0, 30.0 ]
                                }
                            },
                            {
                                "box": {
                                    "comment": "(float, ms) ramp time",
                                    "id": "obj-9",
                                    "index": 2,
                                    "maxclass": "inlet",
                                    "numinlets": 0,
                                    "numoutlets": 1,
                                    "outlettype": [ "" ],
                                    "patching_rect": [ 48.0, 8.0, 30.0, 30.0 ]
                                }
                            },
                            {
                                "box": {
                                    "comment": "(signal) mono",
                                    "id": "obj-10",
                                    "index": 1,
                                    "maxclass": "outlet",
                                    "numinlets": 1,
                                    "numoutlets": 0,
                                    "patching_rect": [ 8.0, 264.0, 30.0, 30.0 ]
                                }
                            }
                        ],
                        "lines": [
                            {
                                "patchline": {
                                    "destination": [ "obj-10", 0 ],
                                    "source": [ "obj-17", 0 ]
                                }
                            },
                            {
                                "patchline": {
                                    "destination": [ "obj-17", 1 ],
                                    "source": [ "obj-19", 0 ]
                                }
                            },
                            {
                                "patchline": {
                                    "destination": [ "obj-19", 1 ],
                                    "source": [ "obj-27", 0 ]
                                }
                            },
                            {
                                "patchline": {
                                    "destination": [ "obj-27", 0 ],
                                    "source": [ "obj-4", 1 ]
                                }
                            },
                            {
                                "patchline": {
                                    "destination": [ "obj-27", 0 ],
                                    "source": [ "obj-4", 0 ]
                                }
                            },
                            {
                                "patchline": {
                                    "destination": [ "obj-17", 0 ],
                                    "source": [ "obj-7", 0 ]
                                }
                            },
                            {
                                "patchline": {
                                    "destination": [ "obj-19", 0 ],
                                    "source": [ "obj-8", 0 ]
                                }
                            },
                            {
                                "patchline": {
                                    "destination": [ "obj-4", 0 ],
                                    "source": [ "obj-9", 0 ]
                                }
                            }
                        ]
                    },
                    "patching_rect": [ 152.0, 112.0, 60.0, 20.0 ],
                    "saved_object_attributes": {
                        "fontname": "Arial Bold",
                        "fontsize": 10.0
                    },
                    "text": "p PitchEnv"
                }
            },
            {
                "box": {
                    "fontname": "Arial Bold",
                    "fontsize": 10.0,
                    "id": "obj-5",
                    "maxclass": "newobj",
                    "numinlets": 1,
                    "numoutlets": 1,
                    "outlettype": [ "signal" ],
                    "patching_rect": [ 64.0, 64.0, 43.0, 20.0 ],
                    "text": "sig~ 0."
                }
            }
        ],
        "lines": [
            {
                "patchline": {
                    "destination": [ "obj-18", 1 ],
                    "order": 0,
                    "source": [ "obj-1", 0 ]
                }
            },
            {
                "patchline": {
                    "destination": [ "obj-23", 1 ],
                    "order": 1,
                    "source": [ "obj-1", 0 ]
                }
            },
            {
                "patchline": {
                    "destination": [ "obj-7", 1 ],
                    "source": [ "obj-10", 0 ]
                }
            },
            {
                "patchline": {
                    "destination": [ "obj-7", 2 ],
                    "source": [ "obj-11", 0 ]
                }
            },
            {
                "patchline": {
                    "destination": [ "obj-19", 1 ],
                    "source": [ "obj-12", 0 ]
                }
            },
            {
                "patchline": {
                    "destination": [ "obj-18", 0 ],
                    "order": 0,
                    "source": [ "obj-13", 0 ]
                }
            },
            {
                "patchline": {
                    "destination": [ "obj-23", 0 ],
                    "order": 1,
                    "source": [ "obj-13", 0 ]
                }
            },
            {
                "patchline": {
                    "destination": [ "obj-13", 0 ],
                    "source": [ "obj-14", 0 ]
                }
            },
            {
                "patchline": {
                    "destination": [ "obj-3", 0 ],
                    "order": 0,
                    "source": [ "obj-15", 0 ]
                }
            },
            {
                "patchline": {
                    "destination": [ "obj-4", 0 ],
                    "order": 1,
                    "source": [ "obj-15", 0 ]
                }
            },
            {
                "patchline": {
                    "destination": [ "obj-15", 1 ],
                    "source": [ "obj-16", 0 ]
                }
            },
            {
                "patchline": {
                    "destination": [ "obj-14", 2 ],
                    "source": [ "obj-17", 0 ]
                }
            },
            {
                "patchline": {
                    "destination": [ "obj-14", 0 ],
                    "source": [ "obj-19", 0 ]
                }
            },
            {
                "patchline": {
                    "destination": [ "obj-18", 2 ],
                    "order": 0,
                    "source": [ "obj-2", 0 ]
                }
            },
            {
                "patchline": {
                    "destination": [ "obj-23", 2 ],
                    "order": 1,
                    "source": [ "obj-2", 0 ]
                }
            },
            {
                "patchline": {
                    "destination": [ "obj-13", 1 ],
                    "source": [ "obj-20", 0 ]
                }
            },
            {
                "patchline": {
                    "destination": [ "obj-15", 0 ],
                    "source": [ "obj-23", 0 ]
                }
            },
            {
                "patchline": {
                    "destination": [ "obj-7", 0 ],
                    "source": [ "obj-5", 0 ]
                }
            },
            {
                "patchline": {
                    "destination": [ "obj-8", 0 ],
                    "source": [ "obj-6", 0 ]
                }
            },
            {
                "patchline": {
                    "destination": [ "obj-19", 0 ],
                    "source": [ "obj-7", 0 ]
                }
            },
            {
                "patchline": {
                    "destination": [ "obj-14", 0 ],
                    "source": [ "obj-8", 2 ]
                }
            },
            {
                "patchline": {
                    "destination": [ "obj-16", 0 ],
                    "source": [ "obj-8", 0 ]
                }
            },
            {
                "patchline": {
                    "destination": [ "obj-18", 0 ],
                    "order": 0,
                    "source": [ "obj-8", 1 ]
                }
            },
            {
                "patchline": {
                    "destination": [ "obj-19", 0 ],
                    "source": [ "obj-8", 3 ]
                }
            },
            {
                "patchline": {
                    "destination": [ "obj-23", 0 ],
                    "order": 1,
                    "source": [ "obj-8", 1 ]
                }
            },
            {
                "patchline": {
                    "destination": [ "obj-14", 1 ],
                    "order": 0,
                    "source": [ "obj-9", 0 ]
                }
            },
            {
                "patchline": {
                    "destination": [ "obj-5", 0 ],
                    "order": 1,
                    "source": [ "obj-9", 0 ]
                }
            }
        ],
        "autosave": 0
    }
}