{
    "patcher": {
        "fileversion": 1,
        "appversion": {
            "major": 9,
            "minor": 1,
            "revision": 2,
            "architecture": "x64",
            "modernui": 1
        },
        "classnamespace": "box",
        "rect": [ 341.0, 527.0, 841.0, 504.0 ],
        "default_fontsize": 10.0,
        "default_fontname": "Arial Bold",
        "gridsize": [ 8.0, 8.0 ],
        "gridsnaponopen": 2,
        "objectsnaponopen": 0,
        "subpatcher_template": "roben-kleene-max-for-live",
        "boxes": [
            {
                "box": {
                    "id": "obj-18",
                    "maxclass": "newobj",
                    "numinlets": 1,
                    "numoutlets": 2,
                    "outlettype": [ "int", "int" ],
                    "patching_rect": [ 152.0, 200.0, 29.5, 20.0 ],
                    "text": "t i i"
                }
            },
            {
                "box": {
                    "id": "obj-17",
                    "maxclass": "newobj",
                    "numinlets": 2,
                    "numoutlets": 1,
                    "outlettype": [ "" ],
                    "patching_rect": [ 48.0, 256.0, 29.5, 20.0 ],
                    "text": "gate"
                }
            },
            {
                "box": {
                    "id": "obj-16",
                    "maxclass": "newobj",
                    "numinlets": 2,
                    "numoutlets": 1,
                    "outlettype": [ "int" ],
                    "patching_rect": [ 152.0, 168.0, 29.5, 20.0 ],
                    "text": "== 0"
                }
            },
            {
                "box": {
                    "id": "obj-15",
                    "maxclass": "newobj",
                    "numinlets": 2,
                    "numoutlets": 1,
                    "outlettype": [ "signal" ],
                    "patching_rect": [ 8.0, 256.0, 35.0, 20.0 ],
                    "text": "gate~"
                }
            },
            {
                "box": {
                    "id": "obj-14",
                    "maxclass": "newobj",
                    "numinlets": 2,
                    "numoutlets": 1,
                    "outlettype": [ "signal" ],
                    "patching_rect": [ 392.0, 352.0, 35.0, 20.0 ],
                    "text": "gate~"
                }
            },
            {
                "box": {
                    "id": "obj-13",
                    "maxclass": "newobj",
                    "numinlets": 1,
                    "numoutlets": 2,
                    "outlettype": [ "bang", "float" ],
                    "patching_rect": [ 56.0, 48.0, 32.0, 20.0 ],
                    "text": "t b 0."
                }
            },
            {
                "box": {
                    "id": "obj-12",
                    "maxclass": "newobj",
                    "numinlets": 2,
                    "numoutlets": 1,
                    "outlettype": [ "signal" ],
                    "patching_rect": [ 408.0, 312.0, 48.0, 20.0 ],
                    "text": "phasor~"
                }
            },
            {
                "box": {
                    "id": "obj-11",
                    "maxclass": "newobj",
                    "numinlets": 2,
                    "numoutlets": 1,
                    "outlettype": [ "signal" ],
                    "patching_rect": [ 408.0, 280.0, 29.5, 20.0 ],
                    "text": "*~"
                }
            },
            {
                "box": {
                    "id": "obj-10",
                    "maxclass": "newobj",
                    "numinlets": 2,
                    "numoutlets": 1,
                    "outlettype": [ "signal" ],
                    "patching_rect": [ 408.0, 248.0, 38.0, 20.0 ],
                    "text": "*~ 100"
                }
            },
            {
                "box": {
                    "id": "obj-9",
                    "maxclass": "newobj",
                    "numinlets": 3,
                    "numoutlets": 2,
                    "outlettype": [ "signal", "bang" ],
                    "patching_rect": [ 408.0, 216.0, 41.0, 20.0 ],
                    "text": "curve~"
                }
            },
            {
                "box": {
                    "id": "obj-6",
                    "maxclass": "message",
                    "numinlets": 2,
                    "numoutlets": 1,
                    "outlettype": [ "" ],
                    "patching_rect": [ 408.0, 184.0, 104.0, 20.0 ],
                    "text": "0., 1. 1. -0.8 0. 5. -0.6"
                }
            },
            {
                "box": {
                    "id": "obj-2",
                    "maxclass": "newobj",
                    "numinlets": 1,
                    "numoutlets": 1,
                    "outlettype": [ "" ],
                    "patching_rect": [ 256.0, 8.0, 26.0, 20.0 ],
                    "saved_object_attributes": {
                        "attr_comment": [ "(int)", "toggle", "reset" ],
                        "c": [ "(int)", "toggle", "reset" ]
                    },
                    "text": "in 3"
                }
            },
            {
                "box": {
                    "id": "obj-3",
                    "linecount": 9,
                    "maxclass": "comment",
                    "numinlets": 1,
                    "numoutlets": 0,
                    "patching_rect": [ 96.0, 8.0, 150.0, 107.0 ],
                    "text": "Note that sending `0` as a single event to phase input only overrides a single sample, e.g., \n`sin(0.723) > sin(0.728) > sin(0.733)` `sin(0.723) > 0 > sin(0.733)`. I.e., it doesn't *also* reset the phase of the oscillator."
                }
            },
            {
                "box": {
                    "id": "obj-5",
                    "maxclass": "newobj",
                    "numinlets": 1,
                    "numoutlets": 0,
                    "patching_rect": [ 8.0, 352.0, 38.0, 20.0 ],
                    "saved_object_attributes": {
                        "attr_comment": [ "(signal)", "mono" ],
                        "c": [ "(signal)", "mono" ]
                    },
                    "text": "out~ 1"
                }
            },
            {
                "box": {
                    "id": "obj-8",
                    "maxclass": "newobj",
                    "numinlets": 1,
                    "numoutlets": 1,
                    "outlettype": [ "" ],
                    "patching_rect": [ 56.0, 8.0, 26.0, 20.0 ],
                    "saved_object_attributes": {
                        "attr_comment": [ "(bang)", "reset", "phase" ],
                        "c": [ "(bang)", "reset", "phase" ]
                    },
                    "text": "in 2"
                }
            },
            {
                "box": {
                    "id": "obj-1",
                    "maxclass": "newobj",
                    "numinlets": 1,
                    "numoutlets": 1,
                    "outlettype": [ "signal" ],
                    "patching_rect": [ 8.0, 8.0, 32.0, 20.0 ],
                    "saved_object_attributes": {
                        "attr_comment": [ "(signal)", "freq" ],
                        "c": [ "(signal)", "freq" ]
                    },
                    "text": "in~ 1"
                }
            },
            {
                "box": {
                    "fontname": "Arial Bold",
                    "fontsize": 10.0,
                    "id": "obj-7",
                    "maxclass": "newobj",
                    "numinlets": 2,
                    "numoutlets": 1,
                    "outlettype": [ "signal" ],
                    "patching_rect": [ 8.0, 304.0, 45.0, 20.0 ],
                    "text": "cycle~"
                }
            }
        ],
        "lines": [
            {
                "patchline": {
                    "destination": [ "obj-15", 1 ],
                    "source": [ "obj-1", 0 ]
                }
            },
            {
                "patchline": {
                    "destination": [ "obj-11", 0 ],
                    "source": [ "obj-10", 0 ]
                }
            },
            {
                "patchline": {
                    "destination": [ "obj-12", 0 ],
                    "source": [ "obj-11", 0 ]
                }
            },
            {
                "patchline": {
                    "destination": [ "obj-14", 1 ],
                    "source": [ "obj-12", 0 ]
                }
            },
            {
                "patchline": {
                    "destination": [ "obj-17", 1 ],
                    "source": [ "obj-13", 1 ]
                }
            },
            {
                "patchline": {
                    "destination": [ "obj-6", 0 ],
                    "source": [ "obj-13", 0 ]
                }
            },
            {
                "patchline": {
                    "destination": [ "obj-7", 1 ],
                    "source": [ "obj-14", 0 ]
                }
            },
            {
                "patchline": {
                    "destination": [ "obj-7", 0 ],
                    "source": [ "obj-15", 0 ]
                }
            },
            {
                "patchline": {
                    "destination": [ "obj-18", 0 ],
                    "source": [ "obj-16", 0 ]
                }
            },
            {
                "patchline": {
                    "destination": [ "obj-7", 1 ],
                    "source": [ "obj-17", 0 ]
                }
            },
            {
                "patchline": {
                    "destination": [ "obj-15", 0 ],
                    "source": [ "obj-18", 0 ]
                }
            },
            {
                "patchline": {
                    "destination": [ "obj-17", 0 ],
                    "source": [ "obj-18", 1 ]
                }
            },
            {
                "patchline": {
                    "destination": [ "obj-14", 0 ],
                    "order": 0,
                    "source": [ "obj-2", 0 ]
                }
            },
            {
                "patchline": {
                    "destination": [ "obj-16", 0 ],
                    "order": 1,
                    "source": [ "obj-2", 0 ]
                }
            },
            {
                "patchline": {
                    "destination": [ "obj-9", 0 ],
                    "source": [ "obj-6", 0 ]
                }
            },
            {
                "patchline": {
                    "destination": [ "obj-5", 0 ],
                    "source": [ "obj-7", 0 ]
                }
            },
            {
                "patchline": {
                    "destination": [ "obj-13", 0 ],
                    "source": [ "obj-8", 0 ]
                }
            },
            {
                "patchline": {
                    "destination": [ "obj-10", 0 ],
                    "source": [ "obj-9", 0 ]
                }
            }
        ],
        "autosave": 0
    }
}