{
    "patcher": {
        "fileversion": 1,
        "appversion": {
            "major": 9,
            "minor": 1,
            "revision": 2,
            "architecture": "x64",
            "modernui": 1
        },
        "classnamespace": "box",
        "rect": [ 1019.0, 471.0, 567.0, 561.0 ],
        "gridsize": [ 8.0, 8.0 ],
        "gridsnaponopen": 2,
        "objectsnaponopen": 0,
        "subpatcher_template": "roben-kleene-max-for-live",
        "boxes": [
            {
                "box": {
                    "id": "obj-4",
                    "maxclass": "newobj",
                    "numinlets": 1,
                    "numoutlets": 1,
                    "outlettype": [ "signal" ],
                    "patching_rect": [ 56.0, 48.0, 37.0, 20.0 ],
                    "text": "click~"
                }
            },
            {
                "box": {
                    "id": "obj-6",
                    "maxclass": "newobj",
                    "numinlets": 2,
                    "numoutlets": 1,
                    "outlettype": [ "signal" ],
                    "patching_rect": [ 40.0, 88.0, 35.0, 20.0 ],
                    "text": "gate~"
                }
            },
            {
                "box": {
                    "id": "obj-2",
                    "maxclass": "newobj",
                    "numinlets": 1,
                    "numoutlets": 1,
                    "outlettype": [ "" ],
                    "patching_rect": [ 80.0, 8.0, 26.0, 20.0 ],
                    "saved_object_attributes": {
                        "attr_comment": [ "(int)", "toggle", "reset" ],
                        "c": [ "(int)", "toggle", "reset" ]
                    },
                    "text": "in 3"
                }
            },
            {
                "box": {
                    "id": "obj-8",
                    "maxclass": "newobj",
                    "numinlets": 1,
                    "numoutlets": 1,
                    "outlettype": [ "" ],
                    "patching_rect": [ 48.0, 8.0, 26.0, 20.0 ],
                    "saved_object_attributes": {
                        "attr_comment": [ "(bang)", "reset" ],
                        "c": [ "(bang)", "reset" ]
                    },
                    "text": "in 2"
                }
            },
            {
                "box": {
                    "id": "obj-3",
                    "maxclass": "newobj",
                    "numinlets": 3,
                    "numoutlets": 1,
                    "outlettype": [ "signal" ],
                    "patching_rect": [ 8.0, 120.0, 46.0, 20.0 ],
                    "text": "tri~ 0."
                }
            },
            {
                "box": {
                    "id": "obj-5",
                    "maxclass": "newobj",
                    "numinlets": 1,
                    "numoutlets": 0,
                    "patching_rect": [ 8.0, 152.0, 38.0, 20.0 ],
                    "saved_object_attributes": {
                        "attr_comment": [ "(signal)", "mono" ],
                        "c": [ "(signal)", "mono" ]
                    },
                    "text": "out~ 1"
                }
            },
            {
                "box": {
                    "id": "obj-1",
                    "maxclass": "newobj",
                    "numinlets": 1,
                    "numoutlets": 1,
                    "outlettype": [ "signal" ],
                    "patching_rect": [ 8.0, 8.0, 32.0, 20.0 ],
                    "saved_object_attributes": {
                        "attr_comment": [ "(signal)", "freq" ],
                        "c": [ "(signal)", "freq" ]
                    },
                    "text": "in~ 1"
                }
            }
        ],
        "lines": [
            {
                "patchline": {
                    "destination": [ "obj-3", 0 ],
                    "source": [ "obj-1", 0 ]
                }
            },
            {
                "patchline": {
                    "destination": [ "obj-6", 0 ],
                    "source": [ "obj-2", 0 ]
                }
            },
            {
                "patchline": {
                    "destination": [ "obj-5", 0 ],
                    "source": [ "obj-3", 0 ]
                }
            },
            {
                "patchline": {
                    "destination": [ "obj-6", 1 ],
                    "source": [ "obj-4", 0 ]
                }
            },
            {
                "patchline": {
                    "destination": [ "obj-3", 2 ],
                    "source": [ "obj-6", 0 ]
                }
            },
            {
                "patchline": {
                    "destination": [ "obj-4", 0 ],
                    "source": [ "obj-8", 0 ]
                }
            }
        ],
        "autosave": 0
    }
}