{
    "patcher": {
        "fileversion": 1,
        "appversion": {
            "major": 9,
            "minor": 1,
            "revision": 2,
            "architecture": "x64",
            "modernui": 1
        },
        "classnamespace": "box",
        "rect": [ 975.0, 394.0, 868.0, 922.0 ],
        "openinpresentation": 1,
        "gridsize": [ 8.0, 8.0 ],
        "gridsnaponopen": 2,
        "objectsnaponopen": 0,
        "boxes": [
            {
                "box": {
                    "id": "obj-47",
                    "maxclass": "newobj",
                    "numinlets": 1,
                    "numoutlets": 1,
                    "outlettype": [ "" ],
                    "patching_rect": [ 0.0, 80.0, 71.0, 22.0 ],
                    "text": "prepend #2"
                }
            },
            {
                "box": {
                    "id": "obj-37",
                    "maxclass": "newobj",
                    "numinlets": 3,
                    "numoutlets": 1,
                    "outlettype": [ "" ],
                    "patching_rect": [ 0.0, 112.0, 102.0, 22.0 ],
                    "text": "sprintf %s-%s %s"
                }
            },
            {
                "box": {
                    "id": "obj-9",
                    "maxclass": "newobj",
                    "numinlets": 1,
                    "numoutlets": 1,
                    "outlettype": [ "" ],
                    "patching_rect": [ 0.0, 144.0, 114.0, 22.0 ],
                    "text": "prepend script send"
                }
            },
            {
                "box": {
                    "id": "obj-5",
                    "maxclass": "newobj",
                    "numinlets": 1,
                    "numoutlets": 2,
                    "outlettype": [ "", "" ],
                    "patching_rect": [ 0.0, 176.0, 67.0, 22.0 ],
                    "save": [ "#N", "thispatcher", ";", "#Q", "end", ";" ],
                    "text": "thispatcher"
                }
            },
            {
                "box": {
                    "id": "obj-4",
                    "maxclass": "newobj",
                    "numinlets": 2,
                    "numoutlets": 2,
                    "outlettype": [ "", "" ],
                    "patching_rect": [ 0.0, 48.0, 95.0, 22.0 ],
                    "text": "route randomize"
                }
            },
            {
                "box": {
                    "comment": "(float, ms) decay",
                    "id": "obj-6",
                    "index": 0,
                    "maxclass": "inlet",
                    "numinlets": 0,
                    "numoutlets": 1,
                    "outlettype": [ "" ],
                    "patching_rect": [ 40.0, 0.0, 30.0, 30.0 ]
                }
            },
            {
                "box": {
                    "comment": "(float, ms) attack",
                    "id": "obj-2",
                    "index": 0,
                    "maxclass": "inlet",
                    "numinlets": 0,
                    "numoutlets": 1,
                    "outlettype": [ "" ],
                    "patching_rect": [ 0.0, 0.0, 30.0, 30.0 ]
                }
            },
            {
                "box": {
                    "id": "obj-1",
                    "maxclass": "newobj",
                    "numinlets": 1,
                    "numoutlets": 4,
                    "outlettype": [ "", "", "", "" ],
                    "patching_rect": [ 456.0, 56.0, 56.0, 22.0 ],
                    "restore": {
                        "#2-AmpAttack": [ 0.0 ],
                        "#2-AmpDecay": [ 0.0 ]
                    },
                    "text": "autopattr",
                    "varname": "u526009117"
                }
            },
            {
                "box": {
                    "annotation": "Amplifier envelope attack.",
                    "annotation_name": "Amplifier Attack",
                    "id": "obj-7",
                    "maxclass": "live.dial",
                    "numinlets": 1,
                    "numoutlets": 2,
                    "outlettype": [ "", "float" ],
                    "parameter_enable": 1,
                    "patching_rect": [ 0.0, 208.0, 41.0, 48.0 ],
                    "presentation": 1,
                    "presentation_rect": [ 0.0, 0.0, 41.0, 48.0 ],
                    "saved_attribute_attributes": {
                        "valueof": {
                            "parameter_exponent": 5.0,
                            "parameter_longname": "#2-AmpAttack",
                            "parameter_mmax": 15000.0,
                            "parameter_modmode": 0,
                            "parameter_shortname": "Attack",
                            "parameter_type": 0,
                            "parameter_unitstyle": 2
                        }
                    },
                    "varname": "#2-AmpAttack"
                }
            },
            {
                "box": {
                    "annotation": "Amplifier envelope decay.",
                    "annotation_name": "Amplifier Decay",
                    "id": "obj-3",
                    "maxclass": "live.dial",
                    "numinlets": 1,
                    "numoutlets": 2,
                    "outlettype": [ "", "float" ],
                    "parameter_enable": 1,
                    "patching_rect": [ 40.0, 208.0, 41.0, 48.0 ],
                    "presentation": 1,
                    "presentation_rect": [ 0.0, 56.0, 41.0, 48.0 ],
                    "saved_attribute_attributes": {
                        "valueof": {
                            "parameter_exponent": 5.0,
                            "parameter_longname": "#2-AmpDecay",
                            "parameter_mmax": 15000.0,
                            "parameter_modmode": 0,
                            "parameter_shortname": "Decay",
                            "parameter_type": 0,
                            "parameter_unitstyle": 2
                        }
                    },
                    "varname": "#2-AmpDecay"
                }
            },
            {
                "box": {
                    "comment": "(float, ms) decay",
                    "id": "obj-25",
                    "index": 0,
                    "maxclass": "outlet",
                    "numinlets": 1,
                    "numoutlets": 0,
                    "patching_rect": [ 40.0, 280.0, 30.0, 30.0 ]
                }
            },
            {
                "box": {
                    "comment": "(float, ms) attack",
                    "id": "obj-24",
                    "index": 0,
                    "maxclass": "outlet",
                    "numinlets": 1,
                    "numoutlets": 0,
                    "patching_rect": [ 0.0, 280.0, 30.0, 30.0 ]
                }
            }
        ],
        "lines": [
            {
                "patchline": {
                    "destination": [ "obj-4", 0 ],
                    "source": [ "obj-2", 0 ]
                }
            },
            {
                "patchline": {
                    "destination": [ "obj-25", 0 ],
                    "source": [ "obj-3", 0 ]
                }
            },
            {
                "patchline": {
                    "destination": [ "obj-9", 0 ],
                    "source": [ "obj-37", 0 ]
                }
            },
            {
                "patchline": {
                    "destination": [ "obj-47", 0 ],
                    "source": [ "obj-4", 0 ]
                }
            },
            {
                "patchline": {
                    "destination": [ "obj-7", 0 ],
                    "source": [ "obj-4", 1 ]
                }
            },
            {
                "patchline": {
                    "destination": [ "obj-37", 0 ],
                    "source": [ "obj-47", 0 ]
                }
            },
            {
                "patchline": {
                    "destination": [ "obj-3", 0 ],
                    "source": [ "obj-6", 0 ]
                }
            },
            {
                "patchline": {
                    "destination": [ "obj-24", 0 ],
                    "source": [ "obj-7", 0 ]
                }
            },
            {
                "patchline": {
                    "destination": [ "obj-5", 0 ],
                    "source": [ "obj-9", 0 ]
                }
            }
        ],
        "parameters": {
            "obj-3": [ "#2-AmpDecay", "Decay", 0 ],
            "obj-7": [ "#2-AmpAttack", "Attack", 0 ],
            "parameterbanks": {
                "0": {
                    "index": 0,
                    "name": "",
                    "parameters": [ "-", "-", "-", "-", "-", "-", "-", "-" ],
                    "buttons": [ "-", "-", "-", "-", "-", "-", "-", "-" ]
                }
            },
            "inherited_shortname": 1
        },
        "autosave": 0
    }
}