{
    "patcher": {
        "fileversion": 1,
        "appversion": {
            "major": 9,
            "minor": 1,
            "revision": 2,
            "architecture": "x64",
            "modernui": 1
        },
        "classnamespace": "box",
        "rect": [ 538.0, 448.0, 814.0, 738.0 ],
        "openinpresentation": 1,
        "gridsize": [ 8.0, 8.0 ],
        "gridsnaponopen": 2,
        "objectsnaponopen": 0,
        "subpatcher_template": "Roben Kleene",
        "boxes": [
            {
                "box": {
                    "id": "obj-21",
                    "linecount": 6,
                    "maxclass": "comment",
                    "numinlets": 1,
                    "numoutlets": 0,
                    "patching_rect": [ 304.0, 8.0, 150.0, 87.0 ],
                    "text": "Curve values of zero are ignored to avoid restoring parameters from overwriting a set curve. E.g., a value of 0 means ignore this value."
                }
            },
            {
                "box": {
                    "id": "obj-15",
                    "maxclass": "newobj",
                    "numinlets": 1,
                    "numoutlets": 2,
                    "outlettype": [ "float", "float" ],
                    "patching_rect": [ 240.0, 64.0, 29.5, 22.0 ],
                    "text": "t f f"
                }
            },
            {
                "box": {
                    "id": "obj-14",
                    "maxclass": "newobj",
                    "numinlets": 2,
                    "numoutlets": 1,
                    "outlettype": [ "int" ],
                    "patching_rect": [ 240.0, 104.0, 32.0, 22.0 ],
                    "text": "!= 0."
                }
            },
            {
                "box": {
                    "id": "obj-13",
                    "maxclass": "newobj",
                    "numinlets": 2,
                    "numoutlets": 1,
                    "outlettype": [ "" ],
                    "patching_rect": [ 240.0, 144.0, 32.0, 22.0 ],
                    "text": "gate"
                }
            },
            {
                "box": {
                    "id": "obj-6",
                    "maxclass": "message",
                    "numinlets": 2,
                    "numoutlets": 1,
                    "outlettype": [ "" ],
                    "patching_rect": [ 144.0, 80.0, 81.0, 22.0 ],
                    "text": "setcurve 1 $1"
                }
            },
            {
                "box": {
                    "id": "obj-26",
                    "maxclass": "live.dial",
                    "numinlets": 1,
                    "numoutlets": 2,
                    "outlettype": [ "", "float" ],
                    "parameter_enable": 1,
                    "patching_rect": [ 240.0, 8.0, 41.0, 48.0 ],
                    "presentation": 1,
                    "presentation_rect": [ 80.0, 112.0, 41.0, 48.0 ],
                    "saved_attribute_attributes": {
                        "valueof": {
                            "parameter_longname": "#1-Curve",
                            "parameter_mmax": 1.0,
                            "parameter_mmin": -1.0,
                            "parameter_modmode": 3,
                            "parameter_shortname": "Curve",
                            "parameter_type": 0,
                            "parameter_unitstyle": 1
                        }
                    },
                    "varname": "#1-Curve"
                }
            },
            {
                "box": {
                    "id": "obj-4",
                    "maxclass": "newobj",
                    "numinlets": 1,
                    "numoutlets": 4,
                    "outlettype": [ "", "", "", "" ],
                    "patching_rect": [ 472.0, 40.0, 56.0, 22.0 ],
                    "restore": {
                        "#1-Amt": [ 0.0 ],
                        "#1-Curve": [ 0.0 ],
                        "#1-Dur": [ 0.0 ]
                    },
                    "text": "autopattr",
                    "varname": "u627002945"
                }
            },
            {
                "box": {
                    "annotation": "The duration of the pitch envelope (the time over which it is applied).",
                    "annotation_name": "Pitch Envelope Duration",
                    "id": "obj-18",
                    "maxclass": "live.dial",
                    "numinlets": 1,
                    "numoutlets": 2,
                    "outlettype": [ "", "float" ],
                    "parameter_enable": 1,
                    "patching_rect": [ 48.0, 8.0, 41.0, 48.0 ],
                    "presentation": 1,
                    "presentation_rect": [ 40.0, 112.0, 41.0, 48.0 ],
                    "saved_attribute_attributes": {
                        "valueof": {
                            "parameter_exponent": 5.0,
                            "parameter_longname": "#1-PitchEnvDur",
                            "parameter_mmax": 15000.0,
                            "parameter_modmode": 0,
                            "parameter_shortname": "Dur",
                            "parameter_type": 0,
                            "parameter_unitstyle": 2
                        }
                    },
                    "varname": "#1-Dur"
                }
            },
            {
                "box": {
                    "annotation": "The amount of adjustment made by the pitch envelope.",
                    "annotation_name": "Pitch Envelope Amount",
                    "id": "obj-17",
                    "maxclass": "live.dial",
                    "numinlets": 1,
                    "numoutlets": 2,
                    "outlettype": [ "", "float" ],
                    "parameter_enable": 1,
                    "patching_rect": [ 88.0, 8.0, 41.0, 48.0 ],
                    "presentation": 1,
                    "presentation_rect": [ 0.0, 112.0, 41.0, 48.0 ],
                    "saved_attribute_attributes": {
                        "valueof": {
                            "parameter_exponent": 5.0,
                            "parameter_longname": "#1-PitchEnvAmt",
                            "parameter_mmax": 15000.0,
                            "parameter_modmode": 0,
                            "parameter_shortname": "Amt",
                            "parameter_type": 0,
                            "parameter_unitstyle": 3
                        }
                    },
                    "varname": "#1-Amt"
                }
            },
            {
                "box": {
                    "comment": "(bang) output function",
                    "id": "obj-16",
                    "index": 0,
                    "maxclass": "inlet",
                    "numinlets": 0,
                    "numoutlets": 1,
                    "outlettype": [ "" ],
                    "patching_rect": [ 8.0, 8.0, 30.0, 30.0 ]
                }
            },
            {
                "box": {
                    "comment": "(float, hz) amt",
                    "id": "obj-3",
                    "index": 0,
                    "maxclass": "outlet",
                    "numinlets": 1,
                    "numoutlets": 0,
                    "patching_rect": [ 48.0, 320.0, 30.0, 30.0 ]
                }
            },
            {
                "box": {
                    "comment": "(list) function",
                    "id": "obj-2",
                    "index": 0,
                    "maxclass": "outlet",
                    "numinlets": 1,
                    "numoutlets": 0,
                    "patching_rect": [ 8.0, 320.0, 30.0, 30.0 ]
                }
            },
            {
                "box": {
                    "args": [ "#1" ],
                    "bgmode": 0,
                    "border": 0,
                    "clickthrough": 1,
                    "enablehscroll": 0,
                    "enablevscroll": 0,
                    "id": "obj-20",
                    "lockeddragscroll": 0,
                    "lockedsize": 0,
                    "maxclass": "bpatcher",
                    "name": "UiFunctionEnv.maxpat",
                    "numinlets": 1,
                    "numoutlets": 1,
                    "offset": [ 0.0, 0.0 ],
                    "outlettype": [ "" ],
                    "patching_rect": [ 8.0, 120.0, 211.0, 143.0 ],
                    "presentation": 1,
                    "presentation_rect": [ 0.0, 0.0, 128.0, 112.0 ],
                    "varname": "FunctionEnv",
                    "viewvisibility": 1
                }
            },
            {
                "box": {
                    "fontname": "Arial Bold",
                    "fontsize": 10.0,
                    "id": "obj-10",
                    "maxclass": "message",
                    "numinlets": 2,
                    "numoutlets": 1,
                    "outlettype": [ "" ],
                    "patching_rect": [ 48.0, 80.0, 87.0, 20.0 ],
                    "text": "setduration $1"
                }
            }
        ],
        "lines": [
            {
                "patchline": {
                    "destination": [ "obj-20", 0 ],
                    "source": [ "obj-10", 0 ]
                }
            },
            {
                "patchline": {
                    "destination": [ "obj-6", 0 ],
                    "source": [ "obj-13", 0 ]
                }
            },
            {
                "patchline": {
                    "destination": [ "obj-13", 0 ],
                    "source": [ "obj-14", 0 ]
                }
            },
            {
                "patchline": {
                    "destination": [ "obj-13", 1 ],
                    "source": [ "obj-15", 0 ]
                }
            },
            {
                "patchline": {
                    "destination": [ "obj-14", 0 ],
                    "source": [ "obj-15", 1 ]
                }
            },
            {
                "patchline": {
                    "destination": [ "obj-20", 0 ],
                    "source": [ "obj-16", 0 ]
                }
            },
            {
                "patchline": {
                    "destination": [ "obj-3", 0 ],
                    "source": [ "obj-17", 0 ]
                }
            },
            {
                "patchline": {
                    "destination": [ "obj-10", 0 ],
                    "source": [ "obj-18", 0 ]
                }
            },
            {
                "patchline": {
                    "destination": [ "obj-2", 0 ],
                    "source": [ "obj-20", 0 ]
                }
            },
            {
                "patchline": {
                    "destination": [ "obj-15", 0 ],
                    "source": [ "obj-26", 0 ]
                }
            },
            {
                "patchline": {
                    "destination": [ "obj-20", 0 ],
                    "source": [ "obj-6", 0 ]
                }
            }
        ],
        "parameters": {
            "obj-17": [ "#1-PitchEnvAmt", "Amt", 0 ],
            "obj-18": [ "#1-PitchEnvDur", "Dur", 0 ],
            "obj-20::obj-30": [ "#1-Function", "Function", 1 ],
            "obj-26": [ "#1-Curve", "Curve", 0 ],
            "inherited_shortname": 1
        },
        "autosave": 0
    }
}