{
    "patcher": {
        "fileversion": 1,
        "appversion": {
            "major": 9,
            "minor": 1,
            "revision": 4,
            "architecture": "x64",
            "modernui": 1
        },
        "classnamespace": "box",
        "rect": [ 527.0, 532.0, 1016.0, 727.0 ],
        "openinpresentation": 1,
        "boxes": [
            {
                "box": {
                    "id": "obj-21",
                    "maxclass": "newobj",
                    "numinlets": 3,
                    "numoutlets": 2,
                    "outlettype": [ "int", "" ],
                    "patcher": {
                        "fileversion": 1,
                        "appversion": {
                            "major": 9,
                            "minor": 1,
                            "revision": 4,
                            "architecture": "x64",
                            "modernui": 1
                        },
                        "classnamespace": "box",
                        "rect": [ 0.0, 0.0, 1000.0, 780.0 ],
                        "boxes": [
                            {
                                "box": {
                                    "id": "obj-33",
                                    "maxclass": "newobj",
                                    "numinlets": 1,
                                    "numoutlets": 4,
                                    "outlettype": [ "int", "bang", "bang", "bang" ],
                                    "patching_rect": [ 172.0, 100.0, 52.0, 22.0 ],
                                    "text": "t 2 b b b"
                                }
                            },
                            {
                                "box": {
                                    "id": "obj-32",
                                    "maxclass": "newobj",
                                    "numinlets": 1,
                                    "numoutlets": 4,
                                    "outlettype": [ "int", "bang", "bang", "bang" ],
                                    "patching_rect": [ 116.0, 100.0, 52.0, 22.0 ],
                                    "text": "t 1 b b b"
                                }
                            },
                            {
                                "box": {
                                    "id": "obj-31",
                                    "maxclass": "newobj",
                                    "numinlets": 1,
                                    "numoutlets": 4,
                                    "outlettype": [ "int", "bang", "bang", "bang" ],
                                    "patching_rect": [ 50.0, 100.0, 52.0, 22.0 ],
                                    "text": "t 0 b b b"
                                }
                            },
                            {
                                "box": {
                                    "id": "obj-26",
                                    "maxclass": "message",
                                    "numinlets": 2,
                                    "numoutlets": 1,
                                    "outlettype": [ "" ],
                                    "patching_rect": [ 469.0, 307.0, 142.0, 22.0 ],
                                    "text": "script show TabSelector3"
                                }
                            },
                            {
                                "box": {
                                    "id": "obj-27",
                                    "maxclass": "message",
                                    "numinlets": 2,
                                    "numoutlets": 1,
                                    "outlettype": [ "" ],
                                    "patching_rect": [ 323.0, 307.0, 142.0, 22.0 ],
                                    "text": "script show TabSelector2"
                                }
                            },
                            {
                                "box": {
                                    "id": "obj-28",
                                    "maxclass": "message",
                                    "numinlets": 2,
                                    "numoutlets": 1,
                                    "outlettype": [ "" ],
                                    "patching_rect": [ 177.0, 307.0, 142.0, 22.0 ],
                                    "text": "script show TabSelector1"
                                }
                            },
                            {
                                "box": {
                                    "id": "obj-25",
                                    "maxclass": "message",
                                    "numinlets": 2,
                                    "numoutlets": 1,
                                    "outlettype": [ "" ],
                                    "patching_rect": [ 469.0, 274.0, 136.0, 22.0 ],
                                    "text": "script hide TabSelector3"
                                }
                            },
                            {
                                "box": {
                                    "id": "obj-24",
                                    "maxclass": "message",
                                    "numinlets": 2,
                                    "numoutlets": 1,
                                    "outlettype": [ "" ],
                                    "patching_rect": [ 323.0, 274.0, 136.0, 22.0 ],
                                    "text": "script hide TabSelector2"
                                }
                            },
                            {
                                "box": {
                                    "id": "obj-23",
                                    "maxclass": "message",
                                    "numinlets": 2,
                                    "numoutlets": 1,
                                    "outlettype": [ "" ],
                                    "patching_rect": [ 177.0, 274.0, 136.0, 22.0 ],
                                    "text": "script hide TabSelector1"
                                }
                            },
                            {
                                "box": {
                                    "comment": "",
                                    "id": "obj-16",
                                    "index": 1,
                                    "maxclass": "inlet",
                                    "numinlets": 0,
                                    "numoutlets": 1,
                                    "outlettype": [ "" ],
                                    "patching_rect": [ 50.0, 40.0, 30.0, 30.0 ]
                                }
                            },
                            {
                                "box": {
                                    "comment": "",
                                    "id": "obj-17",
                                    "index": 2,
                                    "maxclass": "inlet",
                                    "numinlets": 0,
                                    "numoutlets": 1,
                                    "outlettype": [ "" ],
                                    "patching_rect": [ 116.0, 40.0, 30.0, 30.0 ]
                                }
                            },
                            {
                                "box": {
                                    "comment": "",
                                    "id": "obj-18",
                                    "index": 3,
                                    "maxclass": "inlet",
                                    "numinlets": 0,
                                    "numoutlets": 1,
                                    "outlettype": [ "" ],
                                    "patching_rect": [ 172.0, 40.0, 30.0, 30.0 ]
                                }
                            },
                            {
                                "box": {
                                    "comment": "",
                                    "id": "obj-19",
                                    "index": 1,
                                    "maxclass": "outlet",
                                    "numinlets": 1,
                                    "numoutlets": 0,
                                    "patching_rect": [ 106.666664, 389.0, 30.0, 30.0 ]
                                }
                            },
                            {
                                "box": {
                                    "comment": "",
                                    "id": "obj-20",
                                    "index": 2,
                                    "maxclass": "outlet",
                                    "numinlets": 1,
                                    "numoutlets": 0,
                                    "patching_rect": [ 317.0, 389.0, 30.0, 30.0 ]
                                }
                            }
                        ],
                        "lines": [
                            {
                                "patchline": {
                                    "destination": [ "obj-31", 0 ],
                                    "source": [ "obj-16", 0 ]
                                }
                            },
                            {
                                "patchline": {
                                    "destination": [ "obj-32", 0 ],
                                    "source": [ "obj-17", 0 ]
                                }
                            },
                            {
                                "patchline": {
                                    "destination": [ "obj-33", 0 ],
                                    "source": [ "obj-18", 0 ]
                                }
                            },
                            {
                                "patchline": {
                                    "destination": [ "obj-20", 0 ],
                                    "source": [ "obj-23", 0 ]
                                }
                            },
                            {
                                "patchline": {
                                    "destination": [ "obj-20", 0 ],
                                    "source": [ "obj-24", 0 ]
                                }
                            },
                            {
                                "patchline": {
                                    "destination": [ "obj-20", 0 ],
                                    "source": [ "obj-25", 0 ]
                                }
                            },
                            {
                                "patchline": {
                                    "destination": [ "obj-20", 0 ],
                                    "source": [ "obj-26", 0 ]
                                }
                            },
                            {
                                "patchline": {
                                    "destination": [ "obj-20", 0 ],
                                    "source": [ "obj-27", 0 ]
                                }
                            },
                            {
                                "patchline": {
                                    "destination": [ "obj-20", 0 ],
                                    "source": [ "obj-28", 0 ]
                                }
                            },
                            {
                                "patchline": {
                                    "destination": [ "obj-19", 0 ],
                                    "source": [ "obj-31", 0 ]
                                }
                            },
                            {
                                "patchline": {
                                    "destination": [ "obj-24", 0 ],
                                    "source": [ "obj-31", 2 ]
                                }
                            },
                            {
                                "patchline": {
                                    "destination": [ "obj-25", 0 ],
                                    "source": [ "obj-31", 3 ]
                                }
                            },
                            {
                                "patchline": {
                                    "destination": [ "obj-28", 0 ],
                                    "source": [ "obj-31", 1 ]
                                }
                            },
                            {
                                "patchline": {
                                    "destination": [ "obj-19", 0 ],
                                    "source": [ "obj-32", 0 ]
                                }
                            },
                            {
                                "patchline": {
                                    "destination": [ "obj-23", 0 ],
                                    "source": [ "obj-32", 2 ]
                                }
                            },
                            {
                                "patchline": {
                                    "destination": [ "obj-25", 0 ],
                                    "source": [ "obj-32", 3 ]
                                }
                            },
                            {
                                "patchline": {
                                    "destination": [ "obj-27", 0 ],
                                    "source": [ "obj-32", 1 ]
                                }
                            },
                            {
                                "patchline": {
                                    "destination": [ "obj-19", 0 ],
                                    "source": [ "obj-33", 0 ]
                                }
                            },
                            {
                                "patchline": {
                                    "destination": [ "obj-23", 0 ],
                                    "source": [ "obj-33", 2 ]
                                }
                            },
                            {
                                "patchline": {
                                    "destination": [ "obj-24", 0 ],
                                    "source": [ "obj-33", 3 ]
                                }
                            },
                            {
                                "patchline": {
                                    "destination": [ "obj-26", 0 ],
                                    "source": [ "obj-33", 1 ]
                                }
                            }
                        ]
                    },
                    "patching_rect": [ 74.0, 239.0, 62.0, 22.0 ],
                    "text": "p Visibility"
                }
            },
            {
                "box": {
                    "id": "obj-14",
                    "maxclass": "newobj",
                    "numinlets": 1,
                    "numoutlets": 1,
                    "outlettype": [ "" ],
                    "patching_rect": [ 524.0, 339.0, 350.0, 22.0 ],
                    "text": "loadmess script sendbox PanelTab presentation_rect 4. 4. 48. 8."
                }
            },
            {
                "box": {
                    "id": "obj-15",
                    "linecount": 5,
                    "maxclass": "comment",
                    "numinlets": 1,
                    "numoutlets": 0,
                    "patching_rect": [ 710.0, 263.0, 150.0, 74.0 ],
                    "text": "Hide the `PanelRight` and reduce the width of `PanelTab` so that the middle tab aligns with the panel seperation."
                }
            },
            {
                "box": {
                    "id": "obj-13",
                    "maxclass": "newobj",
                    "numinlets": 1,
                    "numoutlets": 1,
                    "outlettype": [ "" ],
                    "patching_rect": [ 524.0, 263.0, 180.0, 22.0 ],
                    "text": "loadmess script hide PanelRight"
                }
            },
            {
                "box": {
                    "id": "obj-29",
                    "maxclass": "newobj",
                    "numinlets": 4,
                    "numoutlets": 4,
                    "outlettype": [ "bang", "bang", "bang", "" ],
                    "patching_rect": [ 74.0, 104.0, 70.0, 22.0 ],
                    "text": "select 0 1 2"
                }
            },
            {
                "box": {
                    "id": "obj-10",
                    "maxclass": "newobj",
                    "numinlets": 1,
                    "numoutlets": 2,
                    "outlettype": [ "", "" ],
                    "patching_rect": [ 95.0, 300.0, 67.0, 22.0 ],
                    "save": [ "#N", "thispatcher", ";", "#Q", "end", ";" ],
                    "text": "thispatcher"
                }
            },
            {
                "box": {
                    "comment": "",
                    "id": "obj-9",
                    "index": 0,
                    "maxclass": "outlet",
                    "numinlets": 1,
                    "numoutlets": 0,
                    "patching_rect": [ 74.0, 343.0, 30.0, 30.0 ]
                }
            },
            {
                "box": {
                    "comment": "",
                    "id": "obj-7",
                    "index": 0,
                    "maxclass": "inlet",
                    "numinlets": 0,
                    "numoutlets": 1,
                    "outlettype": [ "" ],
                    "patching_rect": [ 74.0, 41.0, 30.0, 30.0 ]
                }
            },
            {
                "box": {
                    "activebgcolor": [ 0.8117647058823529, 0.8117647058823529, 0.8117647058823529, 0.0 ],
                    "activebgoncolor": [ 1.0, 0.7254901960784313, 0.00392156862745098, 0.0 ],
                    "bordercolor": [ 0.30980392156862746, 0.30980392156862746, 0.30980392156862746, 0.0 ],
                    "id": "obj-3",
                    "maxclass": "live.text",
                    "mode": 0,
                    "numinlets": 1,
                    "numoutlets": 2,
                    "outlettype": [ "", "" ],
                    "parameter_enable": 1,
                    "patching_rect": [ 166.0, 178.0, 44.0, 15.0 ],
                    "presentation": 1,
                    "presentation_rect": [ 101.0, 0.0, 44.0, 14.0 ],
                    "saved_attribute_attributes": {
                        "activebgcolor": {
                            "expression": ""
                        },
                        "activebgoncolor": {
                            "expression": ""
                        },
                        "bordercolor": {
                            "expression": ""
                        },
                        "valueof": {
                            "parameter_enum": [ "val1", "val2" ],
                            "parameter_longname": "RandTabFilter",
                            "parameter_mmax": 1,
                            "parameter_modmode": 0,
                            "parameter_shortname": "RandTabFilter",
                            "parameter_type": 2
                        }
                    },
                    "text": "Filter",
                    "texton": "Osc",
                    "varname": "RandTabFilter"
                }
            },
            {
                "box": {
                    "activebgcolor": [ 0.8117647058823529, 0.8117647058823529, 0.8117647058823529, 0.0 ],
                    "activebgoncolor": [ 1.0, 0.7254901960784313, 0.00392156862745098, 0.0 ],
                    "bordercolor": [ 0.30980392156862746, 0.30980392156862746, 0.30980392156862746, 0.0 ],
                    "id": "obj-2",
                    "maxclass": "live.text",
                    "mode": 0,
                    "numinlets": 1,
                    "numoutlets": 2,
                    "outlettype": [ "", "" ],
                    "parameter_enable": 1,
                    "patching_rect": [ 120.0, 178.0, 44.0, 15.0 ],
                    "presentation": 1,
                    "presentation_rect": [ 55.0, 0.0, 44.0, 14.0 ],
                    "saved_attribute_attributes": {
                        "activebgcolor": {
                            "expression": ""
                        },
                        "activebgoncolor": {
                            "expression": ""
                        },
                        "bordercolor": {
                            "expression": ""
                        },
                        "valueof": {
                            "parameter_enum": [ "val1", "val2" ],
                            "parameter_longname": "RandTabEffect",
                            "parameter_mmax": 1,
                            "parameter_modmode": 0,
                            "parameter_shortname": "RandTabEffect",
                            "parameter_type": 2
                        }
                    },
                    "text": "Effect",
                    "texton": "Osc",
                    "varname": "RandTabEffect"
                }
            },
            {
                "box": {
                    "angle": 270.0,
                    "bgcolor": [ 0.6470588235294118, 0.6470588235294118, 0.6470588235294118, 1.0 ],
                    "id": "obj-11",
                    "maxclass": "panel",
                    "mode": 0,
                    "numinlets": 1,
                    "numoutlets": 0,
                    "patching_rect": [ 496.0, 178.0, 128.0, 55.0 ],
                    "presentation": 1,
                    "presentation_rect": [ 55.0, 0.0, 44.0, 14.0 ],
                    "proportion": 0.39,
                    "saved_attribute_attributes": {
                        "bgfillcolor": {
                            "expression": "themecolor.live_surface_bg"
                        }
                    }
                }
            },
            {
                "box": {
                    "angle": 270.0,
                    "bgcolor": [ 0.6470588235294118, 0.6470588235294118, 0.6470588235294118, 1.0 ],
                    "id": "obj-12",
                    "maxclass": "panel",
                    "mode": 0,
                    "numinlets": 1,
                    "numoutlets": 0,
                    "patching_rect": [ 354.0, 178.0, 128.0, 55.0 ],
                    "presentation": 1,
                    "presentation_rect": [ 102.0, 0.0, 44.0, 14.0 ],
                    "proportion": 0.39,
                    "saved_attribute_attributes": {
                        "bgfillcolor": {
                            "expression": "themecolor.live_surface_bg"
                        }
                    }
                }
            },
            {
                "box": {
                    "activebgcolor": [ 0.8117647058823529, 0.8117647058823529, 0.8117647058823529, 0.0 ],
                    "activebgoncolor": [ 1.0, 0.7254901960784313, 0.00392156862745098, 0.0 ],
                    "bordercolor": [ 0.30980392156862746, 0.30980392156862746, 0.30980392156862746, 0.0 ],
                    "id": "obj-1",
                    "maxclass": "live.text",
                    "mode": 0,
                    "numinlets": 1,
                    "numoutlets": 2,
                    "outlettype": [ "", "" ],
                    "parameter_enable": 1,
                    "patching_rect": [ 74.0, 178.0, 44.0, 15.0 ],
                    "presentation": 1,
                    "presentation_rect": [ 8.0, 0.0, 44.0, 14.0 ],
                    "saved_attribute_attributes": {
                        "activebgcolor": {
                            "expression": ""
                        },
                        "activebgoncolor": {
                            "expression": ""
                        },
                        "bordercolor": {
                            "expression": ""
                        },
                        "valueof": {
                            "parameter_enum": [ "val1", "val2" ],
                            "parameter_longname": "RandTabOsc",
                            "parameter_mmax": 1,
                            "parameter_modmode": 0,
                            "parameter_shortname": "RandTabOsc",
                            "parameter_type": 2
                        }
                    },
                    "text": "Osc",
                    "texton": "Osc",
                    "varname": "RandTabOsc"
                }
            },
            {
                "box": {
                    "angle": 270.0,
                    "bgcolor": [ 0.6470588235294118, 0.6470588235294118, 0.6470588235294118, 1.0 ],
                    "id": "obj-8",
                    "maxclass": "panel",
                    "mode": 0,
                    "numinlets": 1,
                    "numoutlets": 0,
                    "patching_rect": [ 635.0, 178.0, 128.0, 55.0 ],
                    "presentation": 1,
                    "presentation_rect": [ 8.0, 0.0, 44.0, 14.0 ],
                    "proportion": 0.39,
                    "saved_attribute_attributes": {
                        "bgfillcolor": {
                            "expression": "themecolor.live_surface_bg"
                        }
                    }
                }
            },
            {
                "box": {
                    "bgmode": 0,
                    "border": 0,
                    "clickthrough": 0,
                    "enablehscroll": 0,
                    "enablevscroll": 0,
                    "hidden": 1,
                    "id": "obj-4",
                    "lockeddragscroll": 0,
                    "lockedsize": 0,
                    "maxclass": "bpatcher",
                    "name": "UiTabSelectorHorizontal.maxpat",
                    "numinlets": 1,
                    "numoutlets": 0,
                    "offset": [ 0.0, 0.0 ],
                    "patching_rect": [ 388.0, 249.0, 26.0, 12.0 ],
                    "presentation": 1,
                    "presentation_rect": [ 0.0, 7.0, 60.0, 12.0 ],
                    "varname": "TabSelector1",
                    "viewvisibility": 1
                }
            },
            {
                "box": {
                    "bgmode": 0,
                    "border": 0,
                    "clickthrough": 0,
                    "enablehscroll": 0,
                    "enablevscroll": 0,
                    "id": "obj-5",
                    "lockeddragscroll": 0,
                    "lockedsize": 0,
                    "maxclass": "bpatcher",
                    "name": "UiTabSelectorHorizontal.maxpat",
                    "numinlets": 1,
                    "numoutlets": 0,
                    "offset": [ 0.0, 0.0 ],
                    "patching_rect": [ 430.0, 249.0, 26.0, 12.0 ],
                    "presentation": 1,
                    "presentation_rect": [ 47.0, 7.0, 60.0, 12.0 ],
                    "varname": "TabSelector2",
                    "viewvisibility": 1
                }
            },
            {
                "box": {
                    "bgmode": 0,
                    "border": 0,
                    "clickthrough": 0,
                    "enablehscroll": 0,
                    "enablevscroll": 0,
                    "hidden": 1,
                    "id": "obj-6",
                    "lockeddragscroll": 0,
                    "lockedsize": 0,
                    "maxclass": "bpatcher",
                    "name": "UiTabSelectorHorizontal.maxpat",
                    "numinlets": 1,
                    "numoutlets": 0,
                    "offset": [ 0.0, 0.0 ],
                    "patching_rect": [ 471.0, 249.0, 26.0, 12.0 ],
                    "presentation": 1,
                    "presentation_rect": [ 94.0, 7.0, 60.0, 12.0 ],
                    "varname": "TabSelector3",
                    "viewvisibility": 1
                }
            }
        ],
        "lines": [
            {
                "patchline": {
                    "destination": [ "obj-21", 0 ],
                    "source": [ "obj-1", 0 ]
                }
            },
            {
                "patchline": {
                    "destination": [ "obj-5", 0 ],
                    "source": [ "obj-13", 0 ]
                }
            },
            {
                "patchline": {
                    "destination": [ "obj-5", 0 ],
                    "source": [ "obj-14", 0 ]
                }
            },
            {
                "patchline": {
                    "destination": [ "obj-21", 1 ],
                    "source": [ "obj-2", 0 ]
                }
            },
            {
                "patchline": {
                    "destination": [ "obj-10", 0 ],
                    "source": [ "obj-21", 1 ]
                }
            },
            {
                "patchline": {
                    "destination": [ "obj-9", 0 ],
                    "source": [ "obj-21", 0 ]
                }
            },
            {
                "patchline": {
                    "destination": [ "obj-1", 0 ],
                    "source": [ "obj-29", 0 ]
                }
            },
            {
                "patchline": {
                    "destination": [ "obj-2", 0 ],
                    "source": [ "obj-29", 1 ]
                }
            },
            {
                "patchline": {
                    "destination": [ "obj-3", 0 ],
                    "source": [ "obj-29", 2 ]
                }
            },
            {
                "patchline": {
                    "destination": [ "obj-21", 2 ],
                    "source": [ "obj-3", 0 ]
                }
            },
            {
                "patchline": {
                    "destination": [ "obj-29", 0 ],
                    "source": [ "obj-7", 0 ]
                }
            }
        ],
        "parameters": {
            "obj-1": [ "RandTabOsc", "RandTabOsc", 0 ],
            "obj-2": [ "RandTabEffect", "RandTabEffect", 0 ],
            "obj-3": [ "RandTabFilter", "RandTabFilter", 0 ],
            "parameterbanks": {
                "0": {
                    "index": 0,
                    "name": "",
                    "parameters": [ "-", "-", "-", "-", "-", "-", "-", "-" ],
                    "buttons": [ "-", "-", "-", "-", "-", "-", "-", "-" ]
                }
            },
            "inherited_shortname": 1
        },
        "autosave": 0,
        "bgcolor": [ 0.7372549019607844, 0.7372549019607844, 0.7372549019607844, 1.0 ],
        "editing_bgcolor": [ 0.7372549019607844, 0.7372549019607844, 0.7372549019607844, 1.0 ],
        "saved_attribute_attributes": {
            "editing_bgcolor": {
                "expression": "themecolor.live_macro_title"
            },
            "locked_bgcolor": {
                "expression": "themecolor.live_macro_title"
            }
        }
    }
}